<?xml version="1.0" encoding="UTF-8" standalone="no"?>
<!-- Created with Inkscape (http://www.inkscape.org/) -->

<svg
   xmlns:ns1="http://www.iki.fi/pav/software/textext/"
   xmlns:dc="http://purl.org/dc/elements/1.1/"
   xmlns:cc="http://creativecommons.org/ns#"
   xmlns:rdf="http://www.w3.org/1999/02/22-rdf-syntax-ns#"
   xmlns:svg="http://www.w3.org/2000/svg"
   xmlns="http://www.w3.org/2000/svg"
   xmlns:sodipodi="http://sodipodi.sourceforge.net/DTD/sodipodi-0.dtd"
   xmlns:inkscape="http://www.inkscape.org/namespaces/inkscape"
   width="210mm"
   height="297mm"
   viewBox="0 0 210 297"
   version="1.1"
   id="svg8"
   inkscape:version="0.92.4 5da689c313, 2019-01-14"
   sodipodi:docname="transformation.svg">
  <defs
     id="defs2">
    <marker
       inkscape:stockid="Arrow1Lend"
       orient="auto"
       refY="0.0"
       refX="0.0"
       id="marker2144"
       style="overflow:visible;"
       inkscape:isstock="true">
      <path
         id="path1335"
         d="M 0.0,0.0 L 5.0,-5.0 L -12.5,0.0 L 5.0,5.0 L 0.0,0.0 z "
         style="fill-rule:evenodd;stroke:#000000;stroke-width:1pt;stroke-opacity:1;fill:#000000;fill-opacity:1"
         transform="scale(0.8) rotate(180) translate(12.5,0)" />
    </marker>
    <marker
       inkscape:isstock="true"
       style="overflow:visible;"
       id="marker2137"
       refX="0.0"
       refY="0.0"
       orient="auto"
       inkscape:stockid="Arrow1Lend">
      <path
         transform="scale(0.8) rotate(180) translate(12.5,0)"
         style="fill-rule:evenodd;stroke:#000000;stroke-width:1pt;stroke-opacity:1;fill:#000000;fill-opacity:1"
         d="M 0.0,0.0 L 5.0,-5.0 L -12.5,0.0 L 5.0,5.0 L 0.0,0.0 z "
         id="path2135" />
    </marker>
    <marker
       style="overflow:visible"
       id="DistanceEnd"
       refX="0.0"
       refY="0.0"
       orient="auto"
       inkscape:stockid="DistanceEnd"
       inkscape:isstock="true">
      <g
         id="g2301"
         style="stroke:#000000;stroke-opacity:1;fill:#000000;fill-opacity:1">
        <path
           style="fill:#000000;stroke:#000000;stroke-width:1.15;stroke-linecap:square;stroke-opacity:1;fill-opacity:1"
           d="M 0,0 L -2,0"
           id="path2316" />
        <path
           style="fill:#000000;fill-rule:evenodd;stroke:#000000;stroke-opacity:1;fill-opacity:1"
           d="M 0,0 L -13,4 L -9,0 -13,-4 L 0,0 z "
           id="path2312" />
        <path
           style="fill:#000000;stroke:#000000;stroke-width:1;stroke-linecap:square;stroke-opacity:1;fill-opacity:1"
           d="M 0,-4 L 0,40"
           id="path2314" />
      </g>
    </marker>
    <marker
       inkscape:stockid="DotM"
       orient="auto"
       refY="0.0"
       refX="0.0"
       id="DotM"
       style="overflow:visible"
       inkscape:isstock="true">
      <path
         id="path1396"
         d="M -2.5,-1.0 C -2.5,1.7600000 -4.7400000,4.0 -7.5,4.0 C -10.260000,4.0 -12.5,1.7600000 -12.5,-1.0 C -12.5,-3.7600000 -10.260000,-6.0 -7.5,-6.0 C -4.7400000,-6.0 -2.5,-3.7600000 -2.5,-1.0 z "
         style="fill-rule:evenodd;stroke:#000000;stroke-width:1pt;stroke-opacity:1;fill:#000000;fill-opacity:1"
         transform="scale(0.4) translate(7.4, 1)" />
    </marker>
    <marker
       inkscape:stockid="DotS"
       orient="auto"
       refY="0.0"
       refX="0.0"
       id="DotS"
       style="overflow:visible"
       inkscape:isstock="true">
      <path
         id="path1399"
         d="M -2.5,-1.0 C -2.5,1.7600000 -4.7400000,4.0 -7.5,4.0 C -10.260000,4.0 -12.5,1.7600000 -12.5,-1.0 C -12.5,-3.7600000 -10.260000,-6.0 -7.5,-6.0 C -4.7400000,-6.0 -2.5,-3.7600000 -2.5,-1.0 z "
         style="fill-rule:evenodd;stroke:#000000;stroke-width:1pt;stroke-opacity:1;fill:#000000;fill-opacity:1"
         transform="scale(0.2) translate(7.4, 1)" />
    </marker>
    <marker
       inkscape:stockid="DotL"
       orient="auto"
       refY="0.0"
       refX="0.0"
       id="DotL"
       style="overflow:visible"
       inkscape:isstock="true">
      <path
         id="path1393"
         d="M -2.5,-1.0 C -2.5,1.7600000 -4.7400000,4.0 -7.5,4.0 C -10.260000,4.0 -12.5,1.7600000 -12.5,-1.0 C -12.5,-3.7600000 -10.260000,-6.0 -7.5,-6.0 C -4.7400000,-6.0 -2.5,-3.7600000 -2.5,-1.0 z "
         style="fill-rule:evenodd;stroke:#000000;stroke-width:1pt;stroke-opacity:1;fill:#000000;fill-opacity:1"
         transform="scale(0.8) translate(7.4, 1)" />
    </marker>
    <marker
       inkscape:stockid="Arrow1Lend"
       orient="auto"
       refY="0.0"
       refX="0.0"
       id="marker5508"
       style="overflow:visible;"
       inkscape:isstock="true">
      <path
         id="path5506"
         d="M 0.0,0.0 L 5.0,-5.0 L -12.5,0.0 L 5.0,5.0 L 0.0,0.0 z "
         style="fill-rule:evenodd;stroke:#000000;stroke-width:1pt;stroke-opacity:1;fill:#000000;fill-opacity:1"
         transform="scale(0.8) rotate(180) translate(12.5,0)" />
    </marker>
    <marker
       inkscape:stockid="Arrow1Lend"
       orient="auto"
       refY="0.0"
       refX="0.0"
       id="Arrow1Lend"
       style="overflow:visible;"
       inkscape:isstock="true"
       inkscape:collect="always">
      <path
         id="path5225"
         d="M 0.0,0.0 L 5.0,-5.0 L -12.5,0.0 L 5.0,5.0 L 0.0,0.0 z "
         style="fill-rule:evenodd;stroke:#000000;stroke-width:1pt;stroke-opacity:1;fill:#000000;fill-opacity:1"
         transform="scale(0.8) rotate(180) translate(12.5,0)" />
    </marker>
  </defs>
  <sodipodi:namedview
     id="base"
     pagecolor="#ffffff"
     bordercolor="#666666"
     borderopacity="1.0"
     inkscape:pageopacity="0.0"
     inkscape:pageshadow="2"
     inkscape:zoom="1.979899"
     inkscape:cx="386.40266"
     inkscape:cy="955.16963"
     inkscape:document-units="mm"
     inkscape:current-layer="layer1"
     showgrid="false"
     inkscape:window-width="2468"
     inkscape:window-height="1348"
     inkscape:window-x="45"
     inkscape:window-y="45"
     inkscape:window-maximized="0" />
  <metadata
     id="metadata5">
    <rdf:RDF>
      <cc:Work
         rdf:about="">
        <dc:format>image/svg+xml</dc:format>
        <dc:type
           rdf:resource="http://purl.org/dc/dcmitype/StillImage" />
        <dc:title></dc:title>
      </cc:Work>
    </rdf:RDF>
  </metadata>
  <g
     inkscape:label="Layer 1"
     inkscape:groupmode="layer"
     id="layer1">
    <path
       style="opacity:1;fill:none;fill-opacity:1;stroke:#000000;stroke-width:0.52916664;stroke-miterlimit:4;stroke-dasharray:none;stroke-dashoffset:0;stroke-opacity:1"
       id="path5075"
       sodipodi:type="arc"
       sodipodi:cx="48.776688"
       sodipodi:cy="63.606884"
       sodipodi:rx="21.515198"
       sodipodi:ry="11.425772"
       sodipodi:start="1.2003118"
       sodipodi:end="1.1966833"
       sodipodi:open="true"
       d="m 56.566633,74.25744 a 21.515198,11.425772 0 0 1 -27.838306,-6.504 21.515198,11.425772 0 0 1 12.222042,-14.789589 21.515198,11.425772 0 0 1 27.86048,6.477168 21.515198,11.425772 0 0 1 -12.171496,14.80134" />
    <path
       style="opacity:1;fill:none;fill-opacity:1;stroke:#000000;stroke-width:0.52916664;stroke-miterlimit:4;stroke-dasharray:none;stroke-dashoffset:0;stroke-opacity:1"
       id="path5075-4"
       sodipodi:type="arc"
       sodipodi:cx="144.86011"
       sodipodi:cy="65.143684"
       sodipodi:rx="21.515198"
       sodipodi:ry="11.425773"
       sodipodi:start="1.2003118"
       sodipodi:end="1.1966833"
       sodipodi:open="true"
       d="m 152.65005,75.794242 a 21.515198,11.425773 0 0 1 -27.8383,-6.504001 21.515198,11.425773 0 0 1 12.22204,-14.789591 21.515198,11.425773 0 0 1 27.86048,6.477169 21.515198,11.425773 0 0 1 -12.1715,14.801342" />
    <path
       style="fill:none;stroke:#000000;stroke-width:0.529;stroke-linecap:butt;stroke-linejoin:miter;stroke-opacity:1;stroke-miterlimit:4;stroke-dasharray:none;marker-start:"
       d="M 47.436697,58.069278 47.176714,25.178653"
       id="path5109"
       inkscape:connector-curvature="0" />
    <path
       style="fill:none;stroke:#000000;stroke-width:0.52899998;stroke-linecap:butt;stroke-linejoin:miter;stroke-miterlimit:4;stroke-dasharray:none;stroke-opacity:1"
       d="m 146.99824,58.461945 0.13363,-31.136899"
       id="path5111"
       inkscape:connector-curvature="0" />
    <g
       id="g5149"
       ns1:jacobian_sqrt="0.567782829839"
       ns1:alignment="middle center"
       ns1:scale="1.60946302491"
       ns1:preamble="/home/hxd/.config/inkscape/extensions/textext"
       ns1:text="$N$"
       ns1:pdfconverter="pdf2svg"
       ns1:texconverter="xelatex"
       ns1:version="0.10.0"
       transform="matrix(0.569828,0.000000,0.000000,0.565745,-50.707641,3.825732)">
      <g
         id="surface1">
        <g
           id="g5146"
           style="fill:rgb(0%,0%,0%);fill-opacity:1;">
          <path
             id="path5144"
             transform="translate(148.712,134.765)"
             d="M 7.53125 -5.765625 C 7.640625 -6.15625 7.8125 -6.46875 8.609375 -6.5 C 8.65625 -6.5 8.78125 -6.515625 8.78125 -6.703125 C 8.78125 -6.703125 8.78125 -6.8125 8.65625 -6.8125 C 8.328125 -6.8125 7.96875 -6.78125 7.640625 -6.78125 C 7.3125 -6.78125 6.953125 -6.8125 6.625 -6.8125 C 6.5625 -6.8125 6.453125 -6.8125 6.453125 -6.609375 C 6.453125 -6.5 6.546875 -6.5 6.625 -6.5 C 7.203125 -6.484375 7.3125 -6.28125 7.3125 -6.0625 C 7.3125 -6.03125 7.28125 -5.875 7.28125 -5.859375 L 6.15625 -1.421875 L 3.953125 -6.625 C 3.875 -6.796875 3.875 -6.8125 3.640625 -6.8125 L 2.296875 -6.8125 C 2.109375 -6.8125 2.015625 -6.8125 2.015625 -6.609375 C 2.015625 -6.5 2.109375 -6.5 2.296875 -6.5 C 2.34375 -6.5 2.96875 -6.5 2.96875 -6.40625 L 1.640625 -1.0625 C 1.53125 -0.65625 1.359375 -0.34375 0.5625 -0.3125 C 0.5 -0.3125 0.390625 -0.296875 0.390625 -0.109375 C 0.390625 -0.046875 0.4375 0 0.515625 0 C 0.84375 0 1.1875 -0.03125 1.515625 -0.03125 C 1.859375 -0.03125 2.21875 0 2.546875 0 C 2.59375 0 2.71875 0 2.71875 -0.203125 C 2.71875 -0.296875 2.625 -0.3125 2.515625 -0.3125 C 1.9375 -0.328125 1.859375 -0.546875 1.859375 -0.75 C 1.859375 -0.8125 1.875 -0.875 1.90625 -0.984375 L 3.21875 -6.234375 C 3.265625 -6.1875 3.265625 -6.15625 3.3125 -6.0625 L 5.796875 -0.1875 C 5.859375 -0.015625 5.890625 0 5.984375 0 C 6.09375 0 6.09375 -0.03125 6.140625 -0.203125 Z M 7.53125 -5.765625 "
             style="stroke:none;stroke-width:0" />
        </g>
      </g>
    </g>
    <g
       id="g5212"
       ns1:jacobian_sqrt="0.567782829839"
       ns1:alignment="middle center"
       ns1:scale="1.60946299656"
       ns1:preamble="/home/hxd/.config/inkscape/extensions/textext"
       ns1:text="$M$"
       ns1:pdfconverter="pdf2svg"
       ns1:texconverter="xelatex"
       ns1:version="0.10.0"
       transform="matrix(0.569828,0,0,0.565745,77.347223,3.2561615)">
      <g
         id="g5210">
        <g
           id="g5208"
           style="fill:#000000;fill-opacity:1">
          <path
             id="path5206"
             transform="translate(148.712,134.765)"
             d="M 9.234375,-6.046875 C 9.328125,-6.40625 9.34375,-6.5 10.09375,-6.5 c 0.21875,0 0.3125,0 0.3125,-0.203125 0,-0.109375 -0.09375,-0.109375 -0.265625,-0.109375 h -1.3125 c -0.265625,0 -0.28125,0 -0.390625,0.1875 L 4.796875,-0.9375 4.015625,-6.578125 C 3.984375,-6.8125 3.96875,-6.8125 3.703125,-6.8125 H 2.34375 c -0.1875,0 -0.296875,0 -0.296875,0.1875 0,0.125 0.09375,0.125 0.28125,0.125 0.140625,0 0.3125,0.015625 0.4375,0.015625 0.15625,0.03125 0.21875,0.046875 0.21875,0.171875 0,0.03125 -0.015625,0.0625 -0.046875,0.1875 l -1.265625,5.0625 c -0.09375,0.40625 -0.265625,0.71875 -1.078125,0.75 -0.046875,0 -0.171875,0.015625 -0.171875,0.1875 0,0.09375 0.0625,0.125 0.140625,0.125 0.3125,0 0.65625,-0.03125 1,-0.03125 C 1.890625,-0.03125 2.25,0 2.578125,0 c 0.046875,0 0.1875,0 0.1875,-0.203125 0,-0.109375 -0.109375,-0.109375 -0.1875,-0.109375 -0.5625,0 -0.671875,-0.203125 -0.671875,-0.4375 0,-0.0625 0,-0.125 0.03125,-0.234375 L 3.296875,-6.40625 H 3.3125 l 0.859375,6.171875 C 4.1875,-0.109375 4.203125,0 4.3125,0 4.421875,0 4.484375,-0.109375 4.53125,-0.171875 l 4.03125,-6.3125 h 0.015625 l -1.4375,5.703125 c -0.09375,0.390625 -0.109375,0.46875 -0.90625,0.46875 -0.15625,0 -0.265625,0 -0.265625,0.1875 C 5.96875,0 6.078125,0 6.109375,0 6.390625,0 7.0625,-0.03125 7.34375,-0.03125 7.75,-0.03125 8.1875,0 8.59375,0 8.65625,0 8.78125,0 8.78125,-0.203125 8.78125,-0.3125 8.6875,-0.3125 8.5,-0.3125 c -0.359375,0 -0.640625,0 -0.640625,-0.171875 0,-0.046875 0,-0.0625 0.046875,-0.25 z m 0,0"
             style="stroke:none;stroke-width:0"
             inkscape:connector-curvature="0" />
        </g>
      </g>
    </g>
    <path
       style="fill:none;stroke:#000000;stroke-width:0.265;stroke-linecap:butt;stroke-linejoin:miter;stroke-opacity:1;stroke-miterlimit:4;stroke-dasharray:none;marker-end:url(#Arrow1Lend)"
       d="m 74.300928,65.410944 44.366742,0.400905"
       id="path5220"
       inkscape:connector-curvature="0" />
    <g
       id="g5652"
       ns1:jacobian_sqrt="0.567782829839"
       ns1:alignment="middle center"
       ns1:scale="1.60946296821"
       ns1:preamble="/home/hxd/.config/inkscape/extensions/textext"
       ns1:text="$f$"
       ns1:pdfconverter="pdf2svg"
       ns1:texconverter="xelatex"
       ns1:version="0.10.0"
       transform="matrix(0.569828,0,0,0.565745,9.3574769,-4.2099721)">
      <g
         id="g5650">
        <g
           id="g5648"
           style="fill:#000000;fill-opacity:1">
          <path
             id="path5646"
             transform="translate(148.712,134.765)"
             d="m 3.65625,-3.984375 h 0.859375 c 0.203125,0 0.296875,0 0.296875,-0.203125 0,-0.109375 -0.09375,-0.109375 -0.265625,-0.109375 H 3.71875 L 3.921875,-5.4375 c 0.046875,-0.203125 0.1875,-0.90625 0.25,-1.03125 0.078125,-0.1875 0.25,-0.34375 0.46875,-0.34375 0.03125,0 0.296875,0 0.484375,0.1875 -0.4375,0.03125 -0.546875,0.390625 -0.546875,0.53125 0,0.234375 0.1875,0.359375 0.375,0.359375 C 5.21875,-5.734375 5.5,-5.96875 5.5,-6.34375 c 0,-0.453125 -0.453125,-0.6875 -0.859375,-0.6875 -0.34375,0 -0.96875,0.1875 -1.265625,1.171875 -0.0625,0.203125 -0.09375,0.3125 -0.328125,1.5625 h -0.6875 c -0.203125,0 -0.3125,0 -0.3125,0.1875 0,0.125 0.09375,0.125 0.28125,0.125 h 0.65625 L 2.25,-0.046875 c -0.1875,0.96875 -0.359375,1.875 -0.875,1.875 -0.046875,0 -0.28125,0 -0.484375,-0.1875 C 1.359375,1.609375 1.453125,1.25 1.453125,1.109375 1.453125,0.875 1.265625,0.75 1.078125,0.75 0.8125,0.75 0.53125,0.984375 0.53125,1.359375 c 0,0.4375 0.4375,0.6875 0.84375,0.6875 0.546875,0 0.953125,-0.59375 1.125,-0.96875 0.328125,-0.625 0.546875,-1.828125 0.5625,-1.90625 z m 0,0"
             style="stroke:none;stroke-width:0"
             inkscape:connector-curvature="0" />
        </g>
      </g>
    </g>
    <g
       id="g5737"
       ns1:jacobian_sqrt="0.567782829839"
       ns1:alignment="middle center"
       ns1:scale="1.60946293986"
       ns1:preamble="/home/hxd/.config/inkscape/extensions/textext"
       ns1:text="$mathscr{F}$"
       ns1:pdfconverter="pdf2svg"
       ns1:texconverter="xelatex"
       ns1:version="0.10.0"
       transform="matrix(0.569828,0.000000,0.000000,0.565745,-1.570687,-30.847563)" />
    <g
       id="g1141"
       ns1:jacobian_sqrt="0.567782829839"
       inkscapeversion="0.92.4"
       ns1:alignment="middle center"
       ns1:scale="1.60946293986"
       ns1:preamble="/home/hxd/.config/inkscape/extensions/textext/hxd-default.tex"
       ns1:text="$\\mathscr{F}$"
       ns1:pdfconverter="pdf2svg"
       ns1:texconverter="xelatex"
       ns1:version="0.10.0"
       transform="matrix(0.569828,0.000000,0.000000,0.565745,8.681131,-31.443113)">
      <g
         id="g1139">
        <g
           id="g1137"
           style="fill:rgb(0%,0%,0%);fill-opacity:1;">
          <path
             id="path1135"
             transform="translate(148.712,134.765)"
             d="M 8.140625 -4.046875 C 7.953125 -4.046875 7.75 -3.921875 7.59375 -3.78125 C 7.34375 -3.609375 7.171875 -3.40625 7.015625 -3.1875 L 6.890625 -3.015625 C 6.640625 -2.953125 6.390625 -2.9375 6.15625 -2.921875 C 6.359375 -3.4375 6.484375 -3.953125 6.875 -4.484375 C 7.203125 -4.9375 7.59375 -5.40625 8.0625 -5.828125 C 8.078125 -5.84375 8.078125 -5.875 8.078125 -5.890625 L 8.0625 -5.984375 C 8.0625 -6.03125 8.03125 -6.046875 7.984375 -6.046875 C 7.96875 -6.046875 7.953125 -6.046875 7.9375 -6.046875 C 7.296875 -5.640625 6.734375 -5.125 6.34375 -4.578125 C 5.9375 -4.015625 5.65625 -3.453125 5.328125 -2.890625 C 4.90625 -2.859375 4.453125 -2.796875 3.96875 -2.625 C 3.59375 -2.515625 3.109375 -2.34375 2.859375 -2 C 2.84375 -1.984375 2.84375 -1.96875 2.84375 -1.953125 C 2.84375 -1.921875 2.859375 -1.90625 2.875 -1.890625 C 2.90625 -1.875 2.921875 -1.875 2.9375 -1.875 L 3.046875 -1.875 C 3.078125 -1.875 3.09375 -1.890625 3.109375 -1.90625 C 3.296875 -2.171875 3.6875 -2.328125 4.0625 -2.453125 C 4.453125 -2.578125 4.828125 -2.625 5.1875 -2.65625 C 5.078125 -2.5 4.96875 -2.3125 4.84375 -2.140625 C 4.078125 -1.0625 2.984375 0 2.109375 0 C 1.265625 0 0.625 -0.171875 0.625 -0.640625 C 0.625 -0.734375 0.640625 -0.828125 0.703125 -0.953125 C 0.78125 -0.84375 0.890625 -0.796875 1 -0.796875 C 1.265625 -0.796875 1.5625 -1 1.5625 -1.1875 C 1.5625 -1.4375 1.421875 -1.53125 1.234375 -1.53125 C 1.03125 -1.53125 0.78125 -1.40625 0.671875 -1.234375 C 0.484375 -0.984375 0.40625 -0.765625 0.40625 -0.59375 C 0.40625 -0.015625 1.21875 0.21875 2.0625 0.21875 C 3.234375 0.21875 4.84375 -0.84375 5.6875 -2.046875 C 5.859375 -2.265625 5.96875 -2.484375 6.0625 -2.6875 C 6.28125 -2.703125 6.515625 -2.734375 6.75 -2.765625 C 6.640625 -2.578125 6.546875 -2.390625 6.484375 -2.203125 C 6.484375 -2.1875 6.484375 -2.1875 6.484375 -2.171875 C 6.484375 -2.15625 6.484375 -2.15625 6.484375 -2.140625 C 6.5 -2.125 6.515625 -2.109375 6.53125 -2.109375 C 6.546875 -2.09375 6.5625 -2.09375 6.5625 -2.09375 C 6.578125 -2.09375 6.59375 -2.09375 6.59375 -2.109375 L 7.140625 -2.328125 C 7.171875 -2.34375 7.203125 -2.375 7.203125 -2.40625 L 7.203125 -2.421875 C 7.1875 -2.453125 7.1875 -2.484375 7.1875 -2.515625 C 7.1875 -2.625 7.21875 -2.75 7.3125 -2.890625 C 7.65625 -2.984375 8.109375 -3.125 8.328125 -3.4375 C 8.40625 -3.546875 8.46875 -3.65625 8.46875 -3.765625 C 8.46875 -3.796875 8.46875 -3.8125 8.453125 -3.84375 C 8.40625 -3.984375 8.28125 -4.046875 8.140625 -4.046875 Z M 9.828125 -6.46875 C 9.8125 -6.484375 9.796875 -6.484375 9.78125 -6.484375 C 8.5 -6.484375 7.859375 -7.25 6.546875 -7.25 C 5.96875 -7.25 5.28125 -7.0625 4.59375 -6.671875 C 3.953125 -6.3125 3.34375 -5.828125 2.96875 -5.28125 C 2.71875 -4.921875 2.578125 -4.5625 2.578125 -4.25 C 2.578125 -4.171875 2.578125 -4.109375 2.59375 -4.03125 C 2.6875 -3.6875 2.984375 -3.484375 3.4375 -3.484375 C 3.84375 -3.484375 4.296875 -3.5625 4.78125 -3.78125 C 5.15625 -3.9375 5.546875 -4.171875 5.765625 -4.484375 C 5.984375 -4.8125 6.125 -5.140625 6.125 -5.40625 C 6.125 -5.6875 5.984375 -5.90625 5.734375 -6.03125 L 5.6875 -6.046875 C 5.671875 -6.046875 5.65625 -6.03125 5.640625 -6.015625 L 5.578125 -5.984375 C 5.546875 -5.96875 5.546875 -5.9375 5.546875 -5.90625 C 5.546875 -5.90625 5.546875 -5.875 5.546875 -5.875 C 5.609375 -5.78125 5.625 -5.671875 5.625 -5.546875 C 5.625 -5.28125 5.5 -4.9375 5.25 -4.578125 C 5.078125 -4.34375 4.8125 -4.109375 4.515625 -3.953125 C 4.140625 -3.78125 3.78125 -3.703125 3.484375 -3.703125 C 3.109375 -3.703125 2.890625 -3.875 2.84375 -4.109375 C 2.828125 -4.140625 2.828125 -4.1875 2.828125 -4.234375 C 2.828125 -4.5 2.96875 -4.828125 3.21875 -5.1875 C 3.53125 -5.625 4.03125 -6.03125 4.578125 -6.296875 C 5.1875 -6.609375 5.765625 -6.703125 6.265625 -6.703125 C 7.546875 -6.703125 8.1875 -5.9375 9.515625 -5.9375 C 9.546875 -5.9375 9.5625 -5.953125 9.5625 -5.96875 L 9.84375 -6.359375 C 9.859375 -6.375 9.875 -6.390625 9.875 -6.40625 C 9.875 -6.4375 9.84375 -6.453125 9.828125 -6.46875 Z M 8.09375 -3.53125 C 7.953125 -3.34375 7.71875 -3.234375 7.453125 -3.15625 C 7.578125 -3.328125 7.71875 -3.53125 7.8125 -3.625 C 7.9375 -3.75 8.03125 -3.828125 8.09375 -3.828125 C 8.15625 -3.828125 8.1875 -3.796875 8.203125 -3.765625 C 8.203125 -3.703125 8.171875 -3.65625 8.09375 -3.53125 Z M 8.09375 -3.53125 "
             style="stroke:none;stroke-width:0" />
        </g>
      </g>
    </g>
    <g
       id="g1219"
       ns1:jacobian_sqrt="0.567782829839"
       inkscapeversion="0.92.4"
       ns1:alignment="middle center"
       ns1:scale="1.60946299656"
       ns1:preamble="/home/hxd/.config/inkscape/extensions/textext/hxd-default.tex"
       ns1:text="$\\bm{x}$"
       ns1:pdfconverter="pdf2svg"
       ns1:texconverter="xelatex"
       ns1:version="0.10.0"
       transform="matrix(0.569828,0,0,0.565745,-35.373577,-15.360271)">
      <g
         id="g1217">
        <g
           id="g1215"
           style="fill:#000000;fill-opacity:1">
          <path
             id="path1213"
             transform="translate(148.712,134.765)"
             d="m 5.34375,-4 c -0.359375,0.109375 -0.53125,0.4375 -0.53125,0.6875 0,0.21875 0.15625,0.46875 0.484375,0.46875 0.359375,0 0.71875,-0.296875 0.71875,-0.78125 C 6.015625,-4.15625 5.5,-4.5 4.890625,-4.5 4.3125,-4.5 3.953125,-4.078125 3.8125,-3.890625 3.5625,-4.3125 3.015625,-4.5 2.4375,-4.5 c -1.25,0 -1.921875,1.21875 -1.921875,1.546875 0,0.140625 0.140625,0.140625 0.234375,0.140625 0.125,0 0.1875,0 0.234375,-0.125 0.28125,-0.90625 1,-1.203125 1.40625,-1.203125 0.375,0 0.5625,0.171875 0.5625,0.484375 0,0.203125 -0.140625,0.75 -0.234375,1.109375 L 2.375,-1.1875 c -0.140625,0.609375 -0.5,0.90625 -0.84375,0.90625 -0.046875,0 -0.28125,0 -0.46875,-0.140625 0.359375,-0.109375 0.53125,-0.453125 0.53125,-0.6875 0,-0.21875 -0.171875,-0.46875 -0.5,-0.46875 -0.34375,0 -0.71875,0.296875 -0.71875,0.78125 0,0.53125 0.53125,0.875 1.140625,0.875 0.5625,0 0.9375,-0.421875 1.0625,-0.609375 0.25,0.421875 0.8125,0.609375 1.375,0.609375 1.265625,0 1.9375,-1.21875 1.9375,-1.546875 0,-0.140625 -0.15625,-0.140625 -0.234375,-0.140625 -0.125,0 -0.1875,0 -0.234375,0.125 -0.28125,0.90625 -1,1.203125 -1.421875,1.203125 -0.375,0 -0.546875,-0.171875 -0.546875,-0.5 0,-0.203125 0.125,-0.734375 0.21875,-1.109375 0.0625,-0.25 0.296875,-1.1875 0.34375,-1.34375 0.15625,-0.609375 0.5,-0.90625 0.84375,-0.90625 0.0625,0 0.28125,0 0.484375,0.140625 z m 0,0"
             style="stroke:none;stroke-width:0"
             inkscape:connector-curvature="0" />
        </g>
      </g>
    </g>
    <g
       id="g1305"
       ns1:jacobian_sqrt="0.567782829839"
       inkscapeversion="0.92.4"
       ns1:alignment="middle center"
       ns1:scale="1.60946296821"
       ns1:preamble="/home/hxd/.config/inkscape/extensions/textext/hxd-default.tex"
       ns1:text="$\\bm{x\'}$"
       ns1:pdfconverter="pdf2svg"
       ns1:texconverter="xelatex"
       ns1:version="0.10.0"
       transform="matrix(0.569828,0,0,0.565745,55.828171,-15.535932)">
      <g
         id="g1303">
        <g
           id="g1297"
           style="fill:#000000;fill-opacity:1">
          <path
             id="path1295"
             transform="translate(148.712,134.765)"
             d="m 5.34375,-4 c -0.359375,0.109375 -0.53125,0.4375 -0.53125,0.6875 0,0.21875 0.15625,0.46875 0.484375,0.46875 0.359375,0 0.71875,-0.296875 0.71875,-0.78125 C 6.015625,-4.15625 5.5,-4.5 4.890625,-4.5 4.3125,-4.5 3.953125,-4.078125 3.8125,-3.890625 3.5625,-4.3125 3.015625,-4.5 2.4375,-4.5 c -1.25,0 -1.921875,1.21875 -1.921875,1.546875 0,0.140625 0.140625,0.140625 0.234375,0.140625 0.125,0 0.1875,0 0.234375,-0.125 0.28125,-0.90625 1,-1.203125 1.40625,-1.203125 0.375,0 0.5625,0.171875 0.5625,0.484375 0,0.203125 -0.140625,0.75 -0.234375,1.109375 L 2.375,-1.1875 c -0.140625,0.609375 -0.5,0.90625 -0.84375,0.90625 -0.046875,0 -0.28125,0 -0.46875,-0.140625 0.359375,-0.109375 0.53125,-0.453125 0.53125,-0.6875 0,-0.21875 -0.171875,-0.46875 -0.5,-0.46875 -0.34375,0 -0.71875,0.296875 -0.71875,0.78125 0,0.53125 0.53125,0.875 1.140625,0.875 0.5625,0 0.9375,-0.421875 1.0625,-0.609375 0.25,0.421875 0.8125,0.609375 1.375,0.609375 1.265625,0 1.9375,-1.21875 1.9375,-1.546875 0,-0.140625 -0.15625,-0.140625 -0.234375,-0.140625 -0.125,0 -0.1875,0 -0.234375,0.125 -0.28125,0.90625 -1,1.203125 -1.421875,1.203125 -0.375,0 -0.546875,-0.171875 -0.546875,-0.5 0,-0.203125 0.125,-0.734375 0.21875,-1.109375 0.0625,-0.25 0.296875,-1.1875 0.34375,-1.34375 0.15625,-0.609375 0.5,-0.90625 0.84375,-0.90625 0.0625,0 0.28125,0 0.484375,0.140625 z m 0,0"
             style="stroke:none;stroke-width:0"
             inkscape:connector-curvature="0" />
        </g>
        <g
           id="g1301"
           style="fill:#000000;fill-opacity:1">
          <path
             id="path1299"
             transform="translate(155.278,131.149)"
             d="M 2.453125,-3.0625 C 2.5,-3.15625 2.53125,-3.21875 2.53125,-3.359375 2.53125,-3.71875 2.203125,-3.90625 1.953125,-3.90625 1.75,-3.90625 1.546875,-3.796875 1.4375,-3.515625 L 0.359375,-0.625 c -0.03125,0.109375 -0.03125,0.109375 -0.03125,0.140625 0,0.015625 0,0.078125 0.0625,0.109375 0.0625,0.046875 0.375,0.1875 0.40625,0.1875 0.078125,0 0.09375,-0.046875 0.15625,-0.140625 z m 0,0"
             style="stroke:none;stroke-width:0"
             inkscape:connector-curvature="0" />
        </g>
      </g>
    </g>
    <path
       style="opacity:1;fill:none;fill-opacity:1;stroke:#000000;stroke-width:0.52899998;stroke-miterlimit:4;stroke-dasharray:none;stroke-dashoffset:0;stroke-opacity:1"
       id="path1315"
       sodipodi:type="arc"
       sodipodi:cx="50.380306"
       sodipodi:cy="60.065556"
       sodipodi:rx="9.8889723"
       sodipodi:ry="4.4099469"
       sodipodi:start="1.2003118"
       sodipodi:end="1.1966833"
       sodipodi:open="true"
       d="m 53.960778,64.176297 a 9.8889723,4.4099469 0 0 1 -12.795246,-2.510316 9.8889723,4.4099469 0 0 1 5.617585,-5.708263 9.8889723,4.4099469 0 0 1 12.805437,2.49996 9.8889723,4.4099469 0 0 1 -5.594352,5.712798" />
    <path
       style="opacity:1;fill:none;fill-opacity:1;stroke:#000000;stroke-width:0.52899998;stroke-miterlimit:4;stroke-dasharray:none;stroke-dashoffset:0;stroke-opacity:1"
       id="path1315-3"
       sodipodi:type="arc"
       sodipodi:cx="141.78648"
       sodipodi:cy="59.931931"
       sodipodi:rx="9.8889723"
       sodipodi:ry="4.4099469"
       sodipodi:start="1.2003118"
       sodipodi:end="1.1966833"
       sodipodi:open="true"
       d="m 145.36696,64.042671 a 9.8889723,4.4099469 0 0 1 -12.79525,-2.510315 9.8889723,4.4099469 0 0 1 5.61758,-5.708263 9.8889723,4.4099469 0 0 1 12.80544,2.49996 9.8889723,4.4099469 0 0 1 -5.59435,5.712798" />
    <path
       style="opacity:1;fill:#000000;fill-opacity:1;stroke:#000000;stroke-width:0.52899998;stroke-miterlimit:4;stroke-dasharray:none;stroke-dashoffset:0;stroke-opacity:1"
       id="path1605"
       sodipodi:type="arc"
       sodipodi:cx="47.239891"
       sodipodi:cy="38.01582"
       sodipodi:rx="1.1358955"
       sodipodi:ry="1.0690781"
       sodipodi:start="1.2003118"
       sodipodi:end="1.1966833"
       sodipodi:open="true"
       d="m 47.651161,39.012363 a 1.1358955,1.0690781 0 0 1 -1.469724,-0.608562 1.1358955,1.0690781 0 0 1 0.645263,-1.383821 1.1358955,1.0690781 0 0 1 1.470895,0.606051 1.1358955,1.0690781 0 0 1 -0.642594,1.384921" />
    <path
       style="opacity:1;fill:#000000;fill-opacity:1;stroke:#000000;stroke-width:0.52899998;stroke-miterlimit:4;stroke-dasharray:none;stroke-dashoffset:0;stroke-opacity:1"
       id="path1605-8"
       sodipodi:type="arc"
       sodipodi:cx="47.44035"
       sodipodi:cy="58.061047"
       sodipodi:rx="1.1358955"
       sodipodi:ry="1.0690781"
       sodipodi:start="1.2003118"
       sodipodi:end="1.1966833"
       sodipodi:open="true"
       d="m 47.85162,59.05759 a 1.1358955,1.0690781 0 0 1 -1.469724,-0.608562 1.1358955,1.0690781 0 0 1 0.645263,-1.383821 1.1358955,1.0690781 0 0 1 1.470895,0.606051 1.1358955,1.0690781 0 0 1 -0.642595,1.384921" />
    <path
       style="opacity:1;fill:#000000;fill-opacity:1;stroke:#000000;stroke-width:0.52899998;stroke-miterlimit:4;stroke-dasharray:none;stroke-dashoffset:0;stroke-opacity:1"
       id="path1605-9"
       sodipodi:type="arc"
       sodipodi:cx="147.13188"
       sodipodi:cy="58.595585"
       sodipodi:rx="1.1358955"
       sodipodi:ry="1.0690781"
       sodipodi:start="1.2003118"
       sodipodi:end="1.1966833"
       sodipodi:open="true"
       d="m 147.54315,59.592128 a 1.1358955,1.0690781 0 0 1 -1.46972,-0.608561 1.1358955,1.0690781 0 0 1 0.64526,-1.383822 1.1358955,1.0690781 0 0 1 1.4709,0.606051 1.1358955,1.0690781 0 0 1 -0.6426,1.384921" />
    <path
       style="opacity:1;fill:#000000;fill-opacity:1;stroke:#000000;stroke-width:0.52899998;stroke-miterlimit:4;stroke-dasharray:none;stroke-dashoffset:0;stroke-opacity:1"
       id="path1605-2"
       sodipodi:type="arc"
       sodipodi:cx="146.99825"
       sodipodi:cy="37.550465"
       sodipodi:rx="1.1358955"
       sodipodi:ry="1.0690781"
       sodipodi:start="1.2003118"
       sodipodi:end="1.1966833"
       sodipodi:open="true"
       d="m 147.40952,38.547008 a 1.1358955,1.0690781 0 0 1 -1.46973,-0.608562 1.1358955,1.0690781 0 0 1 0.64526,-1.383821 1.1358955,1.0690781 0 0 1 1.4709,0.606051 1.1358955,1.0690781 0 0 1 -0.6426,1.384921" />
    <path
       style="fill:none;stroke:#000000;stroke-width:0.26458332;stroke-linecap:butt;stroke-linejoin:miter;stroke-miterlimit:4;stroke-dasharray:2.11666654, 2.11666654;stroke-dashoffset:0;stroke-opacity:1;marker-end:url(#marker5508)"
       d="M 55.057521,37.887557 138.84652,37.753924"
       id="path2115"
       inkscape:connector-curvature="0" />
    <g
       id="g2342"
       ns1:jacobian_sqrt="0.567782829839"
       inkscapeversion="0.92.4"
       ns1:alignment="middle center"
       ns1:scale="1.60946293986"
       ns1:preamble="/home/hxd/.config/inkscape/extensions/textext/hxd-default.tex"
       ns1:text="$\\bm{\\Phi}(\\bm{x})$"
       ns1:pdfconverter="pdf2svg"
       ns1:texconverter="xelatex"
       ns1:version="0.10.0"
       transform="matrix(0.569828,0.000000,0.000000,0.565745,-52.587266,-37.351391)">
      <g
         id="g2340">
        <g
           id="g2326"
           style="fill:rgb(0%,0%,0%);fill-opacity:1;">
          <path
             id="path2324"
             transform="translate(148.712,134.765)"
             d="M 6.078125 -6.375 L 6.078125 -6.84375 C 5.640625 -6.8125 4.578125 -6.8125 4.09375 -6.8125 C 3.59375 -6.8125 2.515625 -6.8125 2.078125 -6.84375 L 2.078125 -6.375 L 3.421875 -6.375 L 3.421875 -5.3125 C 1.875 -5.21875 0.640625 -4.484375 0.640625 -3.421875 C 0.640625 -2.359375 1.875 -1.625 3.421875 -1.53125 L 3.421875 -0.46875 L 2.078125 -0.46875 L 2.078125 0 C 2.515625 -0.03125 3.59375 -0.03125 4.078125 -0.03125 C 4.5625 -0.03125 5.640625 -0.03125 6.078125 0 L 6.078125 -0.46875 L 4.734375 -0.46875 L 4.734375 -1.515625 C 7.3125 -1.71875 7.640625 -2.953125 7.640625 -3.421875 C 7.640625 -3.90625 7.296875 -5.125 4.734375 -5.328125 L 4.734375 -6.375 Z M 3.421875 -1.890625 C 2.1875 -2.078125 2.109375 -2.84375 2.109375 -3.421875 C 2.109375 -4 2.1875 -4.765625 3.421875 -4.9375 Z M 4.734375 -4.953125 C 6 -4.8125 6.171875 -4.140625 6.171875 -3.421875 C 6.171875 -2.6875 6 -2.03125 4.734375 -1.890625 Z M 4.734375 -4.953125 "
             style="stroke:none;stroke-width:0" />
        </g>
        <g
           id="g2330"
           style="fill:rgb(0%,0%,0%);fill-opacity:1;">
          <path
             id="path2328"
             transform="translate(156.987,134.765)"
             d="M 3.296875 2.390625 C 3.296875 2.359375 3.296875 2.34375 3.125 2.171875 C 1.890625 0.921875 1.5625 -0.96875 1.5625 -2.5 C 1.5625 -4.234375 1.9375 -5.96875 3.171875 -7.203125 C 3.296875 -7.328125 3.296875 -7.34375 3.296875 -7.375 C 3.296875 -7.453125 3.265625 -7.484375 3.203125 -7.484375 C 3.09375 -7.484375 2.203125 -6.796875 1.609375 -5.53125 C 1.109375 -4.4375 0.984375 -3.328125 0.984375 -2.5 C 0.984375 -1.71875 1.09375 -0.515625 1.640625 0.625 C 2.25 1.84375 3.09375 2.5 3.203125 2.5 C 3.265625 2.5 3.296875 2.46875 3.296875 2.390625 Z M 3.296875 2.390625 "
             style="stroke:none;stroke-width:0" />
        </g>
        <g
           id="g2334"
           style="fill:rgb(0%,0%,0%);fill-opacity:1;">
          <path
             id="path2332"
             transform="translate(160.861,134.765)"
             d="M 5.34375 -4 C 4.984375 -3.890625 4.8125 -3.5625 4.8125 -3.3125 C 4.8125 -3.09375 4.96875 -2.84375 5.296875 -2.84375 C 5.65625 -2.84375 6.015625 -3.140625 6.015625 -3.625 C 6.015625 -4.15625 5.5 -4.5 4.890625 -4.5 C 4.3125 -4.5 3.953125 -4.078125 3.8125 -3.890625 C 3.5625 -4.3125 3.015625 -4.5 2.4375 -4.5 C 1.1875 -4.5 0.515625 -3.28125 0.515625 -2.953125 C 0.515625 -2.8125 0.65625 -2.8125 0.75 -2.8125 C 0.875 -2.8125 0.9375 -2.8125 0.984375 -2.9375 C 1.265625 -3.84375 1.984375 -4.140625 2.390625 -4.140625 C 2.765625 -4.140625 2.953125 -3.96875 2.953125 -3.65625 C 2.953125 -3.453125 2.8125 -2.90625 2.71875 -2.546875 L 2.375 -1.1875 C 2.234375 -0.578125 1.875 -0.28125 1.53125 -0.28125 C 1.484375 -0.28125 1.25 -0.28125 1.0625 -0.421875 C 1.421875 -0.53125 1.59375 -0.875 1.59375 -1.109375 C 1.59375 -1.328125 1.421875 -1.578125 1.09375 -1.578125 C 0.75 -1.578125 0.375 -1.28125 0.375 -0.796875 C 0.375 -0.265625 0.90625 0.078125 1.515625 0.078125 C 2.078125 0.078125 2.453125 -0.34375 2.578125 -0.53125 C 2.828125 -0.109375 3.390625 0.078125 3.953125 0.078125 C 5.21875 0.078125 5.890625 -1.140625 5.890625 -1.46875 C 5.890625 -1.609375 5.734375 -1.609375 5.65625 -1.609375 C 5.53125 -1.609375 5.46875 -1.609375 5.421875 -1.484375 C 5.140625 -0.578125 4.421875 -0.28125 4 -0.28125 C 3.625 -0.28125 3.453125 -0.453125 3.453125 -0.78125 C 3.453125 -0.984375 3.578125 -1.515625 3.671875 -1.890625 C 3.734375 -2.140625 3.96875 -3.078125 4.015625 -3.234375 C 4.171875 -3.84375 4.515625 -4.140625 4.859375 -4.140625 C 4.921875 -4.140625 5.140625 -4.140625 5.34375 -4 Z M 5.34375 -4 "
             style="stroke:none;stroke-width:0" />
        </g>
        <g
           id="g2338"
           style="fill:rgb(0%,0%,0%);fill-opacity:1;">
          <path
             id="path2336"
             transform="translate(167.427,134.765)"
             d="M 2.875 -2.5 C 2.875 -3.265625 2.765625 -4.46875 2.21875 -5.609375 C 1.625 -6.828125 0.765625 -7.484375 0.671875 -7.484375 C 0.609375 -7.484375 0.5625 -7.4375 0.5625 -7.375 C 0.5625 -7.34375 0.5625 -7.328125 0.75 -7.140625 C 1.734375 -6.15625 2.296875 -4.578125 2.296875 -2.5 C 2.296875 -0.78125 1.9375 0.96875 0.703125 2.21875 C 0.5625 2.34375 0.5625 2.359375 0.5625 2.390625 C 0.5625 2.453125 0.609375 2.5 0.671875 2.5 C 0.765625 2.5 1.671875 1.8125 2.25 0.546875 C 2.765625 -0.546875 2.875 -1.65625 2.875 -2.5 Z M 2.875 -2.5 "
             style="stroke:none;stroke-width:0" />
        </g>
      </g>
    </g>
    <g
       id="g2453"
       ns1:jacobian_sqrt="0.567782829839"
       inkscapeversion="0.92.4"
       ns1:alignment="middle center"
       ns1:scale="1.60946291151"
       ns1:preamble="/home/hxd/.config/inkscape/extensions/textext/hxd-default.tex"
       ns1:text="$\\bm{\\Phi\'}(\\bm{x\'})$"
       ns1:pdfconverter="pdf2svg"
       ns1:texconverter="xelatex"
       ns1:version="0.10.0"
       transform="matrix(0.569828,0.000000,0.000000,0.565745,64.346535,-36.910517)">
      <g
         id="g2451">
        <g
           id="g2429"
           style="fill:rgb(0%,0%,0%);fill-opacity:1;">
          <path
             id="path2427"
             transform="translate(148.712,134.765)"
             d="M 6.078125 -6.375 L 6.078125 -6.84375 C 5.640625 -6.8125 4.578125 -6.8125 4.09375 -6.8125 C 3.59375 -6.8125 2.515625 -6.8125 2.078125 -6.84375 L 2.078125 -6.375 L 3.421875 -6.375 L 3.421875 -5.3125 C 1.875 -5.21875 0.640625 -4.484375 0.640625 -3.421875 C 0.640625 -2.359375 1.875 -1.625 3.421875 -1.53125 L 3.421875 -0.46875 L 2.078125 -0.46875 L 2.078125 0 C 2.515625 -0.03125 3.59375 -0.03125 4.078125 -0.03125 C 4.5625 -0.03125 5.640625 -0.03125 6.078125 0 L 6.078125 -0.46875 L 4.734375 -0.46875 L 4.734375 -1.515625 C 7.3125 -1.71875 7.640625 -2.953125 7.640625 -3.421875 C 7.640625 -3.90625 7.296875 -5.125 4.734375 -5.328125 L 4.734375 -6.375 Z M 3.421875 -1.890625 C 2.1875 -2.078125 2.109375 -2.84375 2.109375 -3.421875 C 2.109375 -4 2.1875 -4.765625 3.421875 -4.9375 Z M 4.734375 -4.953125 C 6 -4.8125 6.171875 -4.140625 6.171875 -3.421875 C 6.171875 -2.6875 6 -2.03125 4.734375 -1.890625 Z M 4.734375 -4.953125 "
             style="stroke:none;stroke-width:0" />
        </g>
        <g
           id="g2433"
           style="fill:rgb(0%,0%,0%);fill-opacity:1;">
          <path
             id="path2431"
             transform="translate(156.987,131.149)"
             d="M 2.453125 -3.0625 C 2.5 -3.15625 2.53125 -3.21875 2.53125 -3.359375 C 2.53125 -3.71875 2.203125 -3.90625 1.953125 -3.90625 C 1.75 -3.90625 1.546875 -3.796875 1.4375 -3.515625 L 0.359375 -0.625 C 0.328125 -0.515625 0.328125 -0.515625 0.328125 -0.484375 C 0.328125 -0.46875 0.328125 -0.40625 0.390625 -0.375 C 0.453125 -0.328125 0.765625 -0.1875 0.796875 -0.1875 C 0.875 -0.1875 0.890625 -0.234375 0.953125 -0.328125 Z M 2.453125 -3.0625 "
             style="stroke:none;stroke-width:0" />
        </g>
        <g
           id="g2437"
           style="fill:rgb(0%,0%,0%);fill-opacity:1;">
          <path
             id="path2435"
             transform="translate(160.189,134.765)"
             d="M 3.296875 2.390625 C 3.296875 2.359375 3.296875 2.34375 3.125 2.171875 C 1.890625 0.921875 1.5625 -0.96875 1.5625 -2.5 C 1.5625 -4.234375 1.9375 -5.96875 3.171875 -7.203125 C 3.296875 -7.328125 3.296875 -7.34375 3.296875 -7.375 C 3.296875 -7.453125 3.265625 -7.484375 3.203125 -7.484375 C 3.09375 -7.484375 2.203125 -6.796875 1.609375 -5.53125 C 1.109375 -4.4375 0.984375 -3.328125 0.984375 -2.5 C 0.984375 -1.71875 1.09375 -0.515625 1.640625 0.625 C 2.25 1.84375 3.09375 2.5 3.203125 2.5 C 3.265625 2.5 3.296875 2.46875 3.296875 2.390625 Z M 3.296875 2.390625 "
             style="stroke:none;stroke-width:0" />
        </g>
        <g
           id="g2441"
           style="fill:rgb(0%,0%,0%);fill-opacity:1;">
          <path
             id="path2439"
             transform="translate(164.063,134.765)"
             d="M 5.34375 -4 C 4.984375 -3.890625 4.8125 -3.5625 4.8125 -3.3125 C 4.8125 -3.09375 4.96875 -2.84375 5.296875 -2.84375 C 5.65625 -2.84375 6.015625 -3.140625 6.015625 -3.625 C 6.015625 -4.15625 5.5 -4.5 4.890625 -4.5 C 4.3125 -4.5 3.953125 -4.078125 3.8125 -3.890625 C 3.5625 -4.3125 3.015625 -4.5 2.4375 -4.5 C 1.1875 -4.5 0.515625 -3.28125 0.515625 -2.953125 C 0.515625 -2.8125 0.65625 -2.8125 0.75 -2.8125 C 0.875 -2.8125 0.9375 -2.8125 0.984375 -2.9375 C 1.265625 -3.84375 1.984375 -4.140625 2.390625 -4.140625 C 2.765625 -4.140625 2.953125 -3.96875 2.953125 -3.65625 C 2.953125 -3.453125 2.8125 -2.90625 2.71875 -2.546875 L 2.375 -1.1875 C 2.234375 -0.578125 1.875 -0.28125 1.53125 -0.28125 C 1.484375 -0.28125 1.25 -0.28125 1.0625 -0.421875 C 1.421875 -0.53125 1.59375 -0.875 1.59375 -1.109375 C 1.59375 -1.328125 1.421875 -1.578125 1.09375 -1.578125 C 0.75 -1.578125 0.375 -1.28125 0.375 -0.796875 C 0.375 -0.265625 0.90625 0.078125 1.515625 0.078125 C 2.078125 0.078125 2.453125 -0.34375 2.578125 -0.53125 C 2.828125 -0.109375 3.390625 0.078125 3.953125 0.078125 C 5.21875 0.078125 5.890625 -1.140625 5.890625 -1.46875 C 5.890625 -1.609375 5.734375 -1.609375 5.65625 -1.609375 C 5.53125 -1.609375 5.46875 -1.609375 5.421875 -1.484375 C 5.140625 -0.578125 4.421875 -0.28125 4 -0.28125 C 3.625 -0.28125 3.453125 -0.453125 3.453125 -0.78125 C 3.453125 -0.984375 3.578125 -1.515625 3.671875 -1.890625 C 3.734375 -2.140625 3.96875 -3.078125 4.015625 -3.234375 C 4.171875 -3.84375 4.515625 -4.140625 4.859375 -4.140625 C 4.921875 -4.140625 5.140625 -4.140625 5.34375 -4 Z M 5.34375 -4 "
             style="stroke:none;stroke-width:0" />
        </g>
        <g
           id="g2445"
           style="fill:rgb(0%,0%,0%);fill-opacity:1;">
          <path
             id="path2443"
             transform="translate(170.629,131.149)"
             d="M 2.453125 -3.0625 C 2.5 -3.15625 2.53125 -3.21875 2.53125 -3.359375 C 2.53125 -3.71875 2.203125 -3.90625 1.953125 -3.90625 C 1.75 -3.90625 1.546875 -3.796875 1.4375 -3.515625 L 0.359375 -0.625 C 0.328125 -0.515625 0.328125 -0.515625 0.328125 -0.484375 C 0.328125 -0.46875 0.328125 -0.40625 0.390625 -0.375 C 0.453125 -0.328125 0.765625 -0.1875 0.796875 -0.1875 C 0.875 -0.1875 0.890625 -0.234375 0.953125 -0.328125 Z M 2.453125 -3.0625 "
             style="stroke:none;stroke-width:0" />
        </g>
        <g
           id="g2449"
           style="fill:rgb(0%,0%,0%);fill-opacity:1;">
          <path
             id="path2447"
             transform="translate(173.831,134.765)"
             d="M 2.875 -2.5 C 2.875 -3.265625 2.765625 -4.46875 2.21875 -5.609375 C 1.625 -6.828125 0.765625 -7.484375 0.671875 -7.484375 C 0.609375 -7.484375 0.5625 -7.4375 0.5625 -7.375 C 0.5625 -7.34375 0.5625 -7.328125 0.75 -7.140625 C 1.734375 -6.15625 2.296875 -4.578125 2.296875 -2.5 C 2.296875 -0.78125 1.9375 0.96875 0.703125 2.21875 C 0.5625 2.34375 0.5625 2.359375 0.5625 2.390625 C 0.5625 2.453125 0.609375 2.5 0.671875 2.5 C 0.765625 2.5 1.671875 1.8125 2.25 0.546875 C 2.765625 -0.546875 2.875 -1.65625 2.875 -2.5 Z M 2.875 -2.5 "
             style="stroke:none;stroke-width:0" />
        </g>
      </g>
    </g>
  </g>
</svg>
