<?xml version="1.0" encoding="UTF-8" standalone="no"?>
<!-- Created with Inkscape (http://www.inkscape.org/) -->

<svg
   xmlns:ns1="http://www.iki.fi/pav/software/textext/"
   xmlns:dc="http://purl.org/dc/elements/1.1/"
   xmlns:cc="http://creativecommons.org/ns#"
   xmlns:rdf="http://www.w3.org/1999/02/22-rdf-syntax-ns#"
   xmlns:svg="http://www.w3.org/2000/svg"
   xmlns="http://www.w3.org/2000/svg"
   xmlns:sodipodi="http://sodipodi.sourceforge.net/DTD/sodipodi-0.dtd"
   xmlns:inkscape="http://www.inkscape.org/namespaces/inkscape"
   width="210mm"
   height="297mm"
   viewBox="0 0 210 297"
   version="1.1"
   id="svg8"
   inkscape:version="0.92.5 (2060ec1f9f, 2020-04-08)"
   sodipodi:docname="Weyl-LL-2.svg">
  <defs
     id="defs2">
    <marker
       inkscape:isstock="true"
       style="overflow:visible;"
       id="marker4200"
       refX="0.0"
       refY="0.0"
       orient="auto"
       inkscape:stockid="Arrow1Mend">
      <path
         transform="scale(0.4) rotate(180) translate(10,0)"
         style="fill-rule:evenodd;stroke:#ff0000;stroke-width:1pt;stroke-opacity:1;fill:#ff0000;fill-opacity:1"
         d="M 0.0,0.0 L 5.0,-5.0 L -12.5,0.0 L 5.0,5.0 L 0.0,0.0 z "
         id="path4198" />
    </marker>
    <marker
       inkscape:stockid="Arrow1Mend"
       orient="auto"
       refY="0.0"
       refX="0.0"
       id="marker2366"
       style="overflow:visible;"
       inkscape:isstock="true">
      <path
         id="path2364"
         d="M 0.0,0.0 L 5.0,-5.0 L -12.5,0.0 L 5.0,5.0 L 0.0,0.0 z "
         style="fill-rule:evenodd;stroke:#ff0000;stroke-width:1pt;stroke-opacity:1;fill:#ff0000;fill-opacity:1"
         transform="scale(0.4) rotate(180) translate(10,0)" />
    </marker>
    <marker
       inkscape:isstock="true"
       style="overflow:visible;"
       id="marker2308"
       refX="0.0"
       refY="0.0"
       orient="auto"
       inkscape:stockid="Arrow1Mend">
      <path
         transform="scale(0.4) rotate(180) translate(10,0)"
         style="fill-rule:evenodd;stroke:#000000;stroke-width:1pt;stroke-opacity:1;fill:#000000;fill-opacity:1"
         d="M 0.0,0.0 L 5.0,-5.0 L -12.5,0.0 L 5.0,5.0 L 0.0,0.0 z "
         id="path2306" />
    </marker>
    <marker
       inkscape:stockid="Arrow1Mstart"
       orient="auto"
       refY="0.0"
       refX="0.0"
       id="Arrow1Mstart"
       style="overflow:visible"
       inkscape:isstock="true">
      <path
         id="path827"
         d="M 0.0,0.0 L 5.0,-5.0 L -12.5,0.0 L 5.0,5.0 L 0.0,0.0 z "
         style="fill-rule:evenodd;stroke:#000000;stroke-width:1pt;stroke-opacity:1;fill:#000000;fill-opacity:1"
         transform="scale(0.4) translate(10,0)" />
    </marker>
    <marker
       inkscape:stockid="Arrow1Mend"
       orient="auto"
       refY="0.0"
       refX="0.0"
       id="Arrow1Mend"
       style="overflow:visible;"
       inkscape:isstock="true"
       inkscape:collect="always">
      <path
         id="path830"
         d="M 0.0,0.0 L 5.0,-5.0 L -12.5,0.0 L 5.0,5.0 L 0.0,0.0 z "
         style="fill-rule:evenodd;stroke:#000000;stroke-width:1pt;stroke-opacity:1;fill:#000000;fill-opacity:1"
         transform="scale(0.4) rotate(180) translate(10,0)" />
    </marker>
    <marker
       inkscape:stockid="Arrow1Lend"
       orient="auto"
       refY="0.0"
       refX="0.0"
       id="Arrow1Lend"
       style="overflow:visible;"
       inkscape:isstock="true">
      <path
         id="path824"
         d="M 0.0,0.0 L 5.0,-5.0 L -12.5,0.0 L 5.0,5.0 L 0.0,0.0 z "
         style="fill-rule:evenodd;stroke:#000000;stroke-width:1pt;stroke-opacity:1;fill:#000000;fill-opacity:1"
         transform="scale(0.8) rotate(180) translate(12.5,0)" />
    </marker>
    <marker
       inkscape:isstock="true"
       style="overflow:visible"
       id="marker4200-9"
       refX="0"
       refY="0"
       orient="auto"
       inkscape:stockid="Arrow1Mend">
      <path
         inkscape:connector-curvature="0"
         transform="matrix(-0.4,0,0,-0.4,-4,0)"
         style="fill:#ff0000;fill-opacity:1;fill-rule:evenodd;stroke:#ff0000;stroke-width:1.00000003pt;stroke-opacity:1"
         d="M 0,0 5,-5 -12.5,0 5,5 Z"
         id="path4198-2" />
    </marker>
    <marker
       inkscape:isstock="true"
       style="overflow:visible"
       id="marker4200-4"
       refX="0"
       refY="0"
       orient="auto"
       inkscape:stockid="Arrow1Mend">
      <path
         inkscape:connector-curvature="0"
         transform="matrix(-0.4,0,0,-0.4,-4,0)"
         style="fill:#ff0000;fill-opacity:1;fill-rule:evenodd;stroke:#ff0000;stroke-width:1.00000003pt;stroke-opacity:1"
         d="M 0,0 5,-5 -12.5,0 5,5 Z"
         id="path4198-7" />
    </marker>
    <marker
       inkscape:isstock="true"
       style="overflow:visible"
       id="marker4200-5"
       refX="0"
       refY="0"
       orient="auto"
       inkscape:stockid="Arrow1Mend">
      <path
         inkscape:connector-curvature="0"
         transform="matrix(-0.4,0,0,-0.4,-4,0)"
         style="fill:#ff0000;fill-opacity:1;fill-rule:evenodd;stroke:#ff0000;stroke-width:1.00000003pt;stroke-opacity:1"
         d="M 0,0 5,-5 -12.5,0 5,5 Z"
         id="path4198-4" />
    </marker>
    <marker
       inkscape:isstock="true"
       style="overflow:visible"
       id="marker4200-1"
       refX="0"
       refY="0"
       orient="auto"
       inkscape:stockid="Arrow1Mend">
      <path
         inkscape:connector-curvature="0"
         transform="matrix(-0.4,0,0,-0.4,-4,0)"
         style="fill:#ff0000;fill-opacity:1;fill-rule:evenodd;stroke:#ff0000;stroke-width:1.00000003pt;stroke-opacity:1"
         d="M 0,0 5,-5 -12.5,0 5,5 Z"
         id="path4198-28" />
    </marker>
  </defs>
  <sodipodi:namedview
     id="base"
     pagecolor="#ffffff"
     bordercolor="#666666"
     borderopacity="1.0"
     inkscape:pageopacity="0.0"
     inkscape:pageshadow="2"
     inkscape:zoom="1.4142136"
     inkscape:cx="420.70615"
     inkscape:cy="588.92854"
     inkscape:document-units="mm"
     inkscape:current-layer="layer1"
     showgrid="false"
     inkscape:window-width="1246"
     inkscape:window-height="1326"
     inkscape:window-x="1290"
     inkscape:window-y="55"
     inkscape:window-maximized="0" />
  <metadata
     id="metadata5">
    <rdf:RDF>
      <cc:Work
         rdf:about="">
        <dc:format>image/svg+xml</dc:format>
        <dc:type
           rdf:resource="http://purl.org/dc/dcmitype/StillImage" />
        <dc:title></dc:title>
      </cc:Work>
    </rdf:RDF>
  </metadata>
  <g
     inkscape:label="Layer 1"
     inkscape:groupmode="layer"
     id="layer1">
    <path
       style="fill:none;stroke:#000000;stroke-width:0.93004268;stroke-linecap:butt;stroke-linejoin:miter;stroke-miterlimit:4;stroke-dasharray:none;stroke-opacity:1;marker-start:url(#Arrow1Mstart)"
       d="M 101.56242,71.525622 V 197.30309"
       id="path817"
       inkscape:connector-curvature="0" />
    <path
       style="fill:none;stroke:#000000;stroke-width:0.97171038;stroke-linecap:butt;stroke-linejoin:miter;stroke-miterlimit:4;stroke-dasharray:none;stroke-opacity:1;marker-end:url(#Arrow1Mend)"
       d="M 39.823159,133.69832 H 161.46141"
       id="path819"
       inkscape:connector-curvature="0" />
    <path
       style="fill:none;stroke:#000000;stroke-width:0.5;stroke-linecap:butt;stroke-linejoin:miter;stroke-opacity:1;stroke-miterlimit:4;stroke-dasharray:none"
       d="M 146.13783,89.122787 57.040464,178.2204"
       id="path1310-9"
       inkscape:connector-curvature="0" />
    <path
       style="fill:none;stroke:#000000;stroke-width:0.5;stroke-linecap:butt;stroke-linejoin:miter;stroke-opacity:1;stroke-miterlimit:4;stroke-dasharray:none"
       d="m 57.000142,81.680592 c 44.963178,45.143878 89.137688,0.03386 89.137688,0.03386"
       id="path1327"
       inkscape:connector-curvature="0" />
    <path
       style="opacity:1;fill:#ffffff;fill-opacity:1;stroke:#ff7f2a;stroke-width:1;stroke-miterlimit:4;stroke-dasharray:none;stroke-dashoffset:0;stroke-opacity:1"
       id="path1215-5"
       sodipodi:type="arc"
       sodipodi:cx="101.58917"
       sodipodi:cy="101.67942"
       sodipodi:rx="3.3408689"
       sodipodi:ry="3.3408689"
       sodipodi:start="1.2003118"
       sodipodi:end="1.1957879"
       sodipodi:open="true"
       d="m 102.79879,104.79362 a 3.3408689,3.3408689 0 0 1 -4.322445,-1.90106 3.3408689,3.3408689 0 0 1 1.896165,-4.324593 3.3408689,3.3408689 0 0 1 4.32674,1.891273 3.3408689,3.3408689 0 0 1 -1.88638,4.32887" />
    <path
       style="opacity:1;fill:#ffffff;fill-opacity:1;stroke:#ff7f2a;stroke-width:1;stroke-miterlimit:4;stroke-dasharray:none;stroke-dashoffset:0;stroke-opacity:1"
       id="path1215-3"
       sodipodi:type="arc"
       sodipodi:cx="117.3046"
       sodipodi:cy="99.060181"
       sodipodi:rx="3.3408689"
       sodipodi:ry="3.3408689"
       sodipodi:start="1.2003118"
       sodipodi:end="1.1957879"
       sodipodi:open="true"
       d="m 118.51422,102.17438 a 3.3408689,3.3408689 0 0 1 -4.32244,-1.90106 3.3408689,3.3408689 0 0 1 1.89616,-4.324593 3.3408689,3.3408689 0 0 1 4.32674,1.891276 3.3408689,3.3408689 0 0 1 -1.88638,4.328867" />
    <path
       style="opacity:1;fill:#ffffff;fill-opacity:1;stroke:#ff7f2a;stroke-width:1;stroke-miterlimit:4;stroke-dasharray:none;stroke-dashoffset:0;stroke-opacity:1"
       id="path1215-8"
       sodipodi:type="arc"
       sodipodi:cx="130.21371"
       sodipodi:cy="93.634605"
       sodipodi:rx="3.3408689"
       sodipodi:ry="3.3408689"
       sodipodi:start="1.2003118"
       sodipodi:end="1.1957879"
       sodipodi:open="true"
       d="m 131.42333,96.748803 a 3.3408689,3.3408689 0 0 1 -4.32244,-1.901057 3.3408689,3.3408689 0 0 1 1.89616,-4.324594 3.3408689,3.3408689 0 0 1 4.32674,1.891275 3.3408689,3.3408689 0 0 1 -1.88638,4.328872" />
    <path
       style="opacity:1;fill:#ffffff;fill-opacity:1;stroke:#ff7f2a;stroke-width:1;stroke-miterlimit:4;stroke-dasharray:none;stroke-dashoffset:0;stroke-opacity:1"
       id="path1215-83"
       sodipodi:type="arc"
       sodipodi:cx="140.69069"
       sodipodi:cy="86.525238"
       sodipodi:rx="3.3408689"
       sodipodi:ry="3.3408689"
       sodipodi:start="1.2003118"
       sodipodi:end="1.1957879"
       sodipodi:open="true"
       d="m 141.90031,89.639436 a 3.3408689,3.3408689 0 0 1 -4.32245,-1.901058 3.3408689,3.3408689 0 0 1 1.89617,-4.324594 3.3408689,3.3408689 0 0 1 4.32673,1.891276 3.3408689,3.3408689 0 0 1 -1.88638,4.328872" />
    <path
       style="opacity:1;fill:#ffffff;fill-opacity:1;stroke:#ff7f2a;stroke-width:1;stroke-miterlimit:4;stroke-dasharray:none;stroke-dashoffset:0;stroke-opacity:1"
       id="path1215-3-1"
       sodipodi:type="arc"
       sodipodi:cx="-85.952583"
       sodipodi:cy="99.380486"
       sodipodi:rx="3.3408689"
       sodipodi:ry="3.3408689"
       sodipodi:start="1.2003118"
       sodipodi:end="1.1957879"
       sodipodi:open="true"
       d="m -84.742964,102.49468 a 3.3408689,3.3408689 0 0 1 -4.322447,-1.90105 3.3408689,3.3408689 0 0 1 1.896168,-4.324598 3.3408689,3.3408689 0 0 1 4.326735,1.891275 3.3408689,3.3408689 0 0 1 -1.886381,4.328873"
       transform="scale(-1,1)" />
    <path
       style="opacity:1;fill:#ffffff;fill-opacity:1;stroke:#ff7f2a;stroke-width:1;stroke-miterlimit:4;stroke-dasharray:none;stroke-dashoffset:0;stroke-opacity:1"
       id="path1215-8-8"
       sodipodi:type="arc"
       sodipodi:cx="-73.043457"
       sodipodi:cy="93.954834"
       sodipodi:rx="3.3408689"
       sodipodi:ry="3.3408689"
       sodipodi:start="1.2003118"
       sodipodi:end="1.1957879"
       sodipodi:open="true"
       d="m -71.833838,97.069032 a 3.3408689,3.3408689 0 0 1 -4.322447,-1.901058 3.3408689,3.3408689 0 0 1 1.896168,-4.324594 3.3408689,3.3408689 0 0 1 4.326736,1.891276 3.3408689,3.3408689 0 0 1 -1.886381,4.328872"
       transform="scale(-1,1)" />
    <path
       style="opacity:1;fill:#ffffff;fill-opacity:1;stroke:#ff7f2a;stroke-width:1;stroke-miterlimit:4;stroke-dasharray:none;stroke-dashoffset:0;stroke-opacity:1"
       id="path1215-83-9"
       sodipodi:type="arc"
       sodipodi:cx="-62.56649"
       sodipodi:cy="86.845383"
       sodipodi:rx="3.3408689"
       sodipodi:ry="3.3408689"
       sodipodi:start="1.2003118"
       sodipodi:end="1.1957879"
       sodipodi:open="true"
       d="m -61.356871,89.95958 a 3.3408689,3.3408689 0 0 1 -4.322447,-1.901057 3.3408689,3.3408689 0 0 1 1.896168,-4.324594 3.3408689,3.3408689 0 0 1 4.326736,1.891276 3.3408689,3.3408689 0 0 1 -1.886381,4.328871"
       transform="scale(-1,1)" />
    <path
       style="fill:none;stroke:#000000;stroke-width:0.5;stroke-linecap:butt;stroke-linejoin:miter;stroke-opacity:1;stroke-miterlimit:4;stroke-dasharray:none"
       d="m 57.206998,185.23225 c 44.963182,-45.14388 89.137692,-0.0339 89.137692,-0.0339"
       id="path1327-6"
       inkscape:connector-curvature="0" />
    <path
       style="opacity:1;fill:#ff7f2a;fill-opacity:1;stroke:#ff7f2a;stroke-width:1;stroke-miterlimit:4;stroke-dasharray:none;stroke-dashoffset:0;stroke-opacity:1"
       id="path1215-5-4"
       sodipodi:type="arc"
       sodipodi:cx="101.60893"
       sodipodi:cy="-165.23267"
       sodipodi:rx="3.3408689"
       sodipodi:ry="3.3408689"
       sodipodi:start="1.2003118"
       sodipodi:end="1.1957879"
       sodipodi:open="true"
       d="m 102.81855,-162.11847 a 3.3408689,3.3408689 0 0 1 -4.322445,-1.90106 3.3408689,3.3408689 0 0 1 1.896165,-4.32459 3.3408689,3.3408689 0 0 1 4.32674,1.89128 3.3408689,3.3408689 0 0 1 -1.88638,4.32887"
       transform="scale(1,-1)" />
    <path
       style="opacity:1;fill:#ff7f2a;fill-opacity:1;stroke:#ff7f2a;stroke-width:1;stroke-miterlimit:4;stroke-dasharray:none;stroke-dashoffset:0;stroke-opacity:1"
       id="path1215-3-3"
       sodipodi:type="arc"
       sodipodi:cx="117.51146"
       sodipodi:cy="-167.85188"
       sodipodi:rx="3.3408689"
       sodipodi:ry="3.3408689"
       sodipodi:start="1.2003118"
       sodipodi:end="1.1957879"
       sodipodi:open="true"
       d="m 118.72108,-164.73769 a 3.3408689,3.3408689 0 0 1 -4.32245,-1.90105 3.3408689,3.3408689 0 0 1 1.89617,-4.3246 3.3408689,3.3408689 0 0 1 4.32674,1.89128 3.3408689,3.3408689 0 0 1 -1.88639,4.32887"
       transform="scale(1,-1)" />
    <path
       style="opacity:1;fill:#ff7f2a;fill-opacity:1;stroke:#ff7f2a;stroke-width:1;stroke-miterlimit:4;stroke-dasharray:none;stroke-dashoffset:0;stroke-opacity:1"
       id="path1215-8-3"
       sodipodi:type="arc"
       sodipodi:cx="130.42058"
       sodipodi:cy="-173.27745"
       sodipodi:rx="3.3408689"
       sodipodi:ry="3.3408689"
       sodipodi:start="1.2003118"
       sodipodi:end="1.1957879"
       sodipodi:open="true"
       d="m 131.6302,-170.16325 a 3.3408689,3.3408689 0 0 1 -4.32245,-1.90106 3.3408689,3.3408689 0 0 1 1.89617,-4.32459 3.3408689,3.3408689 0 0 1 4.32673,1.89127 3.3408689,3.3408689 0 0 1 -1.88638,4.32887"
       transform="scale(1,-1)" />
    <path
       style="opacity:1;fill:#ff7f2a;fill-opacity:1;stroke:#ff7f2a;stroke-width:1;stroke-miterlimit:4;stroke-dasharray:none;stroke-dashoffset:0;stroke-opacity:1"
       id="path1215-83-3"
       sodipodi:type="arc"
       sodipodi:cx="140.89755"
       sodipodi:cy="-180.38681"
       sodipodi:rx="3.3408689"
       sodipodi:ry="3.3408689"
       sodipodi:start="1.2003118"
       sodipodi:end="1.1957879"
       sodipodi:open="true"
       d="m 142.10717,-177.27261 a 3.3408689,3.3408689 0 0 1 -4.32245,-1.90106 3.3408689,3.3408689 0 0 1 1.89617,-4.32459 3.3408689,3.3408689 0 0 1 4.32674,1.89127 3.3408689,3.3408689 0 0 1 -1.88638,4.32887"
       transform="scale(1,-1)" />
    <path
       style="opacity:1;fill:#ff7f2a;fill-opacity:1;stroke:#ff7f2a;stroke-width:1;stroke-miterlimit:4;stroke-dasharray:none;stroke-dashoffset:0;stroke-opacity:1"
       id="path1215-3-1-8"
       sodipodi:type="arc"
       sodipodi:cx="-86.159447"
       sodipodi:cy="-167.53157"
       sodipodi:rx="3.3408689"
       sodipodi:ry="3.3408689"
       sodipodi:start="1.2003118"
       sodipodi:end="1.1957879"
       sodipodi:open="true"
       d="m -84.949828,-164.41737 a 3.3408689,3.3408689 0 0 1 -4.322446,-1.90106 3.3408689,3.3408689 0 0 1 1.896167,-4.32459 3.3408689,3.3408689 0 0 1 4.326736,1.89127 3.3408689,3.3408689 0 0 1 -1.886381,4.32887"
       transform="scale(-1)" />
    <path
       style="opacity:1;fill:#ff7f2a;fill-opacity:1;stroke:#ff7f2a;stroke-width:1;stroke-miterlimit:4;stroke-dasharray:none;stroke-dashoffset:0;stroke-opacity:1"
       id="path1215-8-8-6"
       sodipodi:type="arc"
       sodipodi:cx="-73.250313"
       sodipodi:cy="-172.95723"
       sodipodi:rx="3.3408689"
       sodipodi:ry="3.3408689"
       sodipodi:start="1.2003118"
       sodipodi:end="1.1957879"
       sodipodi:open="true"
       d="m -72.040694,-169.84303 a 3.3408689,3.3408689 0 0 1 -4.322447,-1.90106 3.3408689,3.3408689 0 0 1 1.896168,-4.32459 3.3408689,3.3408689 0 0 1 4.326736,1.89127 3.3408689,3.3408689 0 0 1 -1.886381,4.32887"
       transform="scale(-1)" />
    <path
       style="opacity:1;fill:#ff7f2a;fill-opacity:1;stroke:#ff7f2a;stroke-width:1;stroke-miterlimit:4;stroke-dasharray:none;stroke-dashoffset:0;stroke-opacity:1"
       id="path1215-83-9-0"
       sodipodi:type="arc"
       sodipodi:cx="-62.773346"
       sodipodi:cy="-180.06667"
       sodipodi:rx="3.3408689"
       sodipodi:ry="3.3408689"
       sodipodi:start="1.2003118"
       sodipodi:end="1.1957879"
       sodipodi:open="true"
       d="m -61.563727,-176.95247 a 3.3408689,3.3408689 0 0 1 -4.322447,-1.90106 3.3408689,3.3408689 0 0 1 1.896168,-4.32459 3.3408689,3.3408689 0 0 1 4.326736,1.89128 3.3408689,3.3408689 0 0 1 -1.886381,4.32887"
       transform="scale(-1)" />
    <path
       style="opacity:1;fill:#ff7f2a;fill-opacity:1;stroke:#ff7f2a;stroke-width:1;stroke-miterlimit:4;stroke-dasharray:none;stroke-dashoffset:0;stroke-opacity:1"
       id="path1215-4"
       sodipodi:type="arc"
       sodipodi:cx="101.96333"
       sodipodi:cy="133.67159"
       sodipodi:rx="3.3408689"
       sodipodi:ry="3.3408689"
       sodipodi:start="1.2003118"
       sodipodi:end="1.1957879"
       sodipodi:open="true"
       d="m 103.17295,136.78578 a 3.3408689,3.3408689 0 0 1 -4.322445,-1.90105 3.3408689,3.3408689 0 0 1 1.896165,-4.3246 3.3408689,3.3408689 0 0 1 4.32674,1.89128 3.3408689,3.3408689 0 0 1 -1.88638,4.32887" />
    <path
       style="opacity:1;fill:#ff7f2a;fill-opacity:1;stroke:#ff7f2a;stroke-width:1;stroke-miterlimit:4;stroke-dasharray:none;stroke-dashoffset:0;stroke-opacity:1"
       id="path1215-43"
       sodipodi:type="arc"
       sodipodi:cx="110.7565"
       sodipodi:cy="124.69133"
       sodipodi:rx="3.3408689"
       sodipodi:ry="3.3408689"
       sodipodi:start="1.2003118"
       sodipodi:end="1.1957879"
       sodipodi:open="true"
       d="m 111.96612,127.80553 a 3.3408689,3.3408689 0 0 1 -4.32245,-1.90106 3.3408689,3.3408689 0 0 1 1.89617,-4.32459 3.3408689,3.3408689 0 0 1 4.32674,1.89127 3.3408689,3.3408689 0 0 1 -1.88639,4.32887" />
    <path
       style="opacity:1;fill:#ffffff;fill-opacity:1;stroke:#ff7f2a;stroke-width:1;stroke-miterlimit:4;stroke-dasharray:none;stroke-dashoffset:0;stroke-opacity:1"
       id="path1215-0"
       sodipodi:type="arc"
       sodipodi:cx="119.54967"
       sodipodi:cy="115.71107"
       sodipodi:rx="3.3408689"
       sodipodi:ry="3.3408689"
       sodipodi:start="1.2003118"
       sodipodi:end="1.1957879"
       sodipodi:open="true"
       d="m 120.75929,118.82526 a 3.3408689,3.3408689 0 0 1 -4.32245,-1.90105 3.3408689,3.3408689 0 0 1 1.89617,-4.3246 3.3408689,3.3408689 0 0 1 4.32673,1.89128 3.3408689,3.3408689 0 0 1 -1.88638,4.32887" />
    <path
       style="opacity:1;fill:#ffffff;fill-opacity:1;stroke:#ff7f2a;stroke-width:1;stroke-miterlimit:4;stroke-dasharray:none;stroke-dashoffset:0;stroke-opacity:1"
       id="path1215-30"
       sodipodi:type="arc"
       sodipodi:cx="128.34283"
       sodipodi:cy="107.105"
       sodipodi:rx="3.3408689"
       sodipodi:ry="3.3408689"
       sodipodi:start="1.2003118"
       sodipodi:end="1.1957879"
       sodipodi:open="true"
       d="m 129.55245,110.2192 a 3.3408689,3.3408689 0 0 1 -4.32244,-1.90106 3.3408689,3.3408689 0 0 1 1.89616,-4.32459 3.3408689,3.3408689 0 0 1 4.32674,1.89128 3.3408689,3.3408689 0 0 1 -1.88638,4.32887" />
    <path
       style="opacity:1;fill:#ffffff;fill-opacity:1;stroke:#ff7f2a;stroke-width:1;stroke-miterlimit:4;stroke-dasharray:none;stroke-dashoffset:0;stroke-opacity:1"
       id="path1215-9"
       sodipodi:type="arc"
       sodipodi:cx="137.136"
       sodipodi:cy="98.311829"
       sodipodi:rx="3.3408689"
       sodipodi:ry="3.3408689"
       sodipodi:start="1.2003118"
       sodipodi:end="1.1957879"
       sodipodi:open="true"
       d="m 138.34562,101.42603 a 3.3408689,3.3408689 0 0 1 -4.32245,-1.901061 3.3408689,3.3408689 0 0 1 1.89617,-4.324594 3.3408689,3.3408689 0 0 1 4.32674,1.891276 3.3408689,3.3408689 0 0 1 -1.88638,4.328869" />
    <path
       style="opacity:1;fill:#ff7f2a;fill-opacity:1;stroke:#ff7f2a;stroke-width:1;stroke-miterlimit:4;stroke-dasharray:none;stroke-dashoffset:0;stroke-opacity:1"
       id="path1215-4-5"
       sodipodi:type="arc"
       sodipodi:cx="65.677315"
       sodipodi:cy="169.89583"
       sodipodi:rx="3.3408689"
       sodipodi:ry="3.3408689"
       sodipodi:start="1.2003118"
       sodipodi:end="1.1957879"
       sodipodi:open="true"
       d="m 66.886934,173.01003 a 3.3408689,3.3408689 0 0 1 -4.322447,-1.90106 3.3408689,3.3408689 0 0 1 1.896168,-4.3246 3.3408689,3.3408689 0 0 1 4.326735,1.89128 3.3408689,3.3408689 0 0 1 -1.886381,4.32887" />
    <path
       style="opacity:1;fill:#ff7f2a;fill-opacity:1;stroke:#ff7f2a;stroke-width:1;stroke-miterlimit:4;stroke-dasharray:none;stroke-dashoffset:0;stroke-opacity:1"
       id="path1215-43-4"
       sodipodi:type="arc"
       sodipodi:cx="74.470482"
       sodipodi:cy="160.91557"
       sodipodi:rx="3.3408689"
       sodipodi:ry="3.3408689"
       sodipodi:start="1.2003118"
       sodipodi:end="1.1957879"
       sodipodi:open="true"
       d="m 75.680101,164.02977 a 3.3408689,3.3408689 0 0 1 -4.322447,-1.90106 3.3408689,3.3408689 0 0 1 1.896168,-4.32459 3.3408689,3.3408689 0 0 1 4.326736,1.89128 3.3408689,3.3408689 0 0 1 -1.886381,4.32887" />
    <path
       style="opacity:1;fill:#ff7f2a;fill-opacity:1;stroke:#ff7f2a;stroke-width:1;stroke-miterlimit:4;stroke-dasharray:none;stroke-dashoffset:0;stroke-opacity:1"
       id="path1215-0-0"
       sodipodi:type="arc"
       sodipodi:cx="83.263657"
       sodipodi:cy="151.9353"
       sodipodi:rx="3.3408689"
       sodipodi:ry="3.3408689"
       sodipodi:start="1.2003118"
       sodipodi:end="1.1957879"
       sodipodi:open="true"
       d="m 84.473275,155.0495 a 3.3408689,3.3408689 0 0 1 -4.322446,-1.90106 3.3408689,3.3408689 0 0 1 1.896168,-4.32459 3.3408689,3.3408689 0 0 1 4.326735,1.89127 3.3408689,3.3408689 0 0 1 -1.886381,4.32888" />
    <path
       style="opacity:1;fill:#ff7f2a;fill-opacity:1;stroke:#ff7f2a;stroke-width:1;stroke-miterlimit:4;stroke-dasharray:none;stroke-dashoffset:0;stroke-opacity:1"
       id="path1215-30-5"
       sodipodi:type="arc"
       sodipodi:cx="92.056854"
       sodipodi:cy="143.32932"
       sodipodi:rx="3.3408689"
       sodipodi:ry="3.3408689"
       sodipodi:start="1.2003118"
       sodipodi:end="1.1957879"
       sodipodi:open="true"
       d="m 93.266473,146.44351 a 3.3408689,3.3408689 0 0 1 -4.322446,-1.90105 3.3408689,3.3408689 0 0 1 1.896167,-4.3246 3.3408689,3.3408689 0 0 1 4.326736,1.89128 3.3408689,3.3408689 0 0 1 -1.886381,4.32887" />
    <g
       id="g1873"
       ns1:jacobian_sqrt="0.963412"
       ns1:alignment="middle center"
       ns1:scale="2.7309312983"
       ns1:preamble="/home/hxd/.config/inkscape/extensions/textext/hxd-default.tex"
       ns1:text="$k_3$"
       ns1:pdfconverter="pdf2svg"
       ns1:texconverter="xelatex"
       ns1:version="0.10.0"
       transform="matrix(0.963412,0,0,0.963412,9.2540781,15.412933)">
      <g
         id="surface1">
        <g
           id="g1866"
           style="fill:#000000;fill-opacity:1">
          <path
             id="path1864"
             transform="translate(148.712,134.765)"
             d="m 2.859375,-6.8125 c 0,0 0,-0.109375 -0.125,-0.109375 -0.234375,0 -0.953125,0.078125 -1.21875,0.109375 -0.078125,0 -0.1875,0.015625 -0.1875,0.1875 0,0.125 0.09375,0.125 0.234375,0.125 0.484375,0 0.5,0.0625 0.5,0.171875 L 2.03125,-6.125 0.59375,-0.390625 c -0.046875,0.140625 -0.046875,0.15625 -0.046875,0.21875 0,0.234375 0.203125,0.28125 0.296875,0.28125 0.125,0 0.265625,-0.09375 0.328125,-0.203125 0.046875,-0.09375 0.5,-1.9375 0.5625,-2.1875 0.34375,0.03125 1.15625,0.1875 1.15625,0.84375 0,0.078125 0,0.109375 -0.03125,0.21875 -0.015625,0.109375 -0.03125,0.234375 -0.03125,0.34375 0,0.578125 0.390625,0.984375 0.90625,0.984375 0.296875,0 0.578125,-0.15625 0.796875,-0.53125 0.25,-0.4375 0.359375,-0.984375 0.359375,-1 0,-0.109375 -0.09375,-0.109375 -0.125,-0.109375 -0.09375,0 -0.109375,0.046875 -0.140625,0.1875 -0.203125,0.71875 -0.421875,1.234375 -0.859375,1.234375 -0.203125,0 -0.328125,-0.109375 -0.328125,-0.46875 0,-0.171875 0.046875,-0.40625 0.078125,-0.5625 C 3.5625,-1.3125 3.5625,-1.34375 3.5625,-1.453125 3.5625,-2.09375 2.9375,-2.375 2.078125,-2.5 2.390625,-2.671875 2.71875,-2.984375 2.9375,-3.234375 3.421875,-3.765625 3.875,-4.1875 4.359375,-4.1875 c 0.0625,0 0.078125,0 0.09375,0.015625 0.125,0.015625 0.125,0.015625 0.21875,0.078125 0.015625,0 0.015625,0.015625 0.03125,0.03125 -0.46875,0.03125 -0.5625,0.421875 -0.5625,0.546875 0,0.15625 0.109375,0.34375 0.375,0.34375 0.265625,0 0.546875,-0.21875 0.546875,-0.609375 0,-0.296875 -0.234375,-0.625 -0.671875,-0.625 -0.28125,0 -0.734375,0.078125 -1.453125,0.875 -0.34375,0.375 -0.734375,0.78125 -1.109375,0.921875 z m 0,0"
             style="stroke:none;stroke-width:0"
             inkscape:connector-curvature="0" />
        </g>
        <g
           id="g1870"
           style="fill:#000000;fill-opacity:1">
          <path
             id="path1868"
             transform="translate(153.899,136.259)"
             d="m 1.90625,-2.328125 c 0.546875,0 0.9375,0.375 0.9375,1.125 0,0.859375 -0.515625,1.125 -0.90625,1.125 -0.28125,0 -0.90625,-0.078125 -1.1875,-0.5 0.328125,0 0.40625,-0.234375 0.40625,-0.390625 0,-0.21875 -0.171875,-0.375 -0.390625,-0.375 -0.1875,0 -0.390625,0.125 -0.390625,0.40625 0,0.65625 0.71875,1.078125 1.5625,1.078125 0.96875,0 1.640625,-0.65625 1.640625,-1.34375 0,-0.546875 -0.4375,-1.09375 -1.203125,-1.25 0.71875,-0.265625 0.984375,-0.78125 0.984375,-1.21875 0,-0.546875 -0.625,-0.953125 -1.40625,-0.953125 -0.765625,0 -1.359375,0.375 -1.359375,0.9375 0,0.234375 0.15625,0.359375 0.359375,0.359375 0.21875,0 0.359375,-0.15625 0.359375,-0.34375 0,-0.203125 -0.140625,-0.359375 -0.359375,-0.375 0.25,-0.296875 0.71875,-0.375 0.984375,-0.375 0.3125,0 0.75,0.15625 0.75,0.75 0,0.296875 -0.09375,0.625 -0.28125,0.828125 -0.21875,0.265625 -0.421875,0.28125 -0.765625,0.3125 -0.171875,0.015625 -0.1875,0.015625 -0.21875,0.015625 -0.015625,0 -0.078125,0.015625 -0.078125,0.09375 0,0.09375 0.0625,0.09375 0.1875,0.09375 z m 0,0"
             style="stroke:none;stroke-width:0"
             inkscape:connector-curvature="0" />
        </g>
      </g>
    </g>
    <g
       id="g1932"
       ns1:jacobian_sqrt="0.963412"
       ns1:alignment="middle center"
       ns1:scale="2.7309312983"
       ns1:preamble="/home/hxd/.config/inkscape/extensions/textext/hxd-default.tex"
       ns1:text="$\\omega$"
       ns1:pdfconverter="pdf2svg"
       ns1:texconverter="xelatex"
       ns1:version="0.10.0"
       transform="matrix(0.963412,0,0,0.963412,-50.965039,-53.164412)">
      <g
         id="g1930">
        <g
           id="g1928"
           style="fill:#000000;fill-opacity:1">
          <path
             id="path1926"
             transform="translate(148.712,134.765)"
             d="m 6.03125,-3.703125 c 0,-0.453125 -0.171875,-0.703125 -0.40625,-0.703125 -0.25,0 -0.515625,0.234375 -0.515625,0.46875 0,0.09375 0.046875,0.203125 0.140625,0.296875 0.171875,0.15625 0.359375,0.421875 0.359375,0.84375 0,0.390625 -0.203125,0.96875 -0.5,1.421875 C 4.8125,-0.953125 4.4375,-0.609375 3.96875,-0.609375 3.40625,-0.609375 3.09375,-0.96875 3,-1.5 c 0.109375,-0.265625 0.34375,-0.90625 0.34375,-1.1875 0,-0.109375 -0.046875,-0.21875 -0.1875,-0.21875 -0.078125,0 -0.1875,0.03125 -0.265625,0.171875 C 2.78125,-2.53125 2.65625,-1.890625 2.65625,-1.53125 2.328125,-1.0625 1.9375,-0.609375 1.3125,-0.609375 c -0.671875,0 -0.875,-0.59375 -0.875,-1.140625 0,-1.25 1.015625,-2.296875 1.015625,-2.421875 0,-0.109375 -0.078125,-0.1875 -0.1875,-0.1875 -0.125,0 -0.203125,0.125 -0.265625,0.21875 -0.5,0.734375 -0.875,1.921875 -0.875,2.828125 0,0.6875 0.21875,1.421875 1.046875,1.421875 0.703125,0 1.171875,-0.5 1.53125,-1.046875 0.09375,0.578125 0.484375,1.046875 1.09375,1.046875 0.78125,0 1.25,-0.609375 1.609375,-1.359375 0.25,-0.484375 0.625,-1.84375 0.625,-2.453125 z m 0,0"
             style="stroke:none;stroke-width:0"
             inkscape:connector-curvature="0" />
        </g>
      </g>
    </g>
    <g
       id="g2001"
       ns1:jacobian_sqrt="0.963412"
       ns1:alignment="middle center"
       ns1:scale="2.7309312983"
       ns1:preamble="/home/hxd/.config/inkscape/extensions/textext/hxd-default.tex"
       ns1:text="$n=0$"
       ns1:pdfconverter="pdf2svg"
       ns1:texconverter="xelatex"
       ns1:version="0.10.0"
       transform="matrix(0.963412,0,0,0.963412,-19.961051,-5.9298851)">
      <g
         id="g1999">
        <g
           id="g1989"
           style="fill:#000000;fill-opacity:1">
          <path
             id="path1987"
             transform="translate(148.712,134.765)"
             d="m 0.875,-0.59375 c -0.03125,0.15625 -0.09375,0.390625 -0.09375,0.4375 0,0.171875 0.140625,0.265625 0.296875,0.265625 0.125,0 0.296875,-0.078125 0.375,-0.28125 0,-0.015625 0.125,-0.484375 0.1875,-0.734375 l 0.21875,-0.890625 C 1.90625,-2.03125 1.96875,-2.25 2.03125,-2.46875 c 0.03125,-0.171875 0.109375,-0.46875 0.125,-0.5 0.140625,-0.3125 0.671875,-1.21875 1.625,-1.21875 0.453125,0 0.53125,0.375 0.53125,0.703125 0,0.609375 -0.484375,1.890625 -0.640625,2.3125 C 3.578125,-0.9375 3.5625,-0.8125 3.5625,-0.703125 c 0,0.46875 0.359375,0.8125 0.828125,0.8125 0.9375,0 1.296875,-1.453125 1.296875,-1.53125 0,-0.109375 -0.078125,-0.109375 -0.109375,-0.109375 -0.109375,0 -0.109375,0.03125 -0.15625,0.1875 -0.203125,0.671875 -0.53125,1.234375 -1.015625,1.234375 -0.171875,0 -0.234375,-0.09375 -0.234375,-0.328125 0,-0.25 0.078125,-0.484375 0.171875,-0.703125 0.1875,-0.53125 0.609375,-1.625 0.609375,-2.203125 0,-0.65625 -0.421875,-1.0625 -1.140625,-1.0625 -0.90625,0 -1.390625,0.640625 -1.5625,0.875 -0.046875,-0.5625 -0.453125,-0.875 -0.921875,-0.875 -0.453125,0 -0.640625,0.390625 -0.734375,0.5625 C 0.421875,-3.5 0.296875,-2.90625 0.296875,-2.875 c 0,0.109375 0.09375,0.109375 0.109375,0.109375 0.109375,0 0.109375,-0.015625 0.171875,-0.234375 0.171875,-0.703125 0.375,-1.1875 0.734375,-1.1875 0.1875,0 0.296875,0.125 0.296875,0.453125 0,0.21875 -0.03125,0.328125 -0.15625,0.84375 z m 0,0"
             style="stroke:none;stroke-width:0"
             inkscape:connector-curvature="0" />
        </g>
        <g
           id="g1993"
           style="fill:#000000;fill-opacity:1">
          <path
             id="path1991"
             transform="translate(157.46,134.765)"
             d="m 6.84375,-3.265625 c 0.15625,0 0.34375,0 0.34375,-0.1875 C 7.1875,-3.65625 7,-3.65625 6.859375,-3.65625 h -5.96875 c -0.140625,0 -0.328125,0 -0.328125,0.203125 0,0.1875 0.1875,0.1875 0.328125,0.1875 z m 0.015625,1.9375 c 0.140625,0 0.328125,0 0.328125,-0.203125 0,-0.1875 -0.1875,-0.1875 -0.34375,-0.1875 H 0.890625 c -0.140625,0 -0.328125,0 -0.328125,0.1875 0,0.203125 0.1875,0.203125 0.328125,0.203125 z m 0,0"
             style="stroke:none;stroke-width:0"
             inkscape:connector-curvature="0" />
        </g>
        <g
           id="g1997"
           style="fill:#000000;fill-opacity:1">
          <path
             id="path1995"
             transform="translate(167.96855,134.765)"
             d="m 4.578125,-3.1875 c 0,-0.796875 -0.046875,-1.59375 -0.390625,-2.328125 -0.453125,-0.96875 -1.28125,-1.125 -1.6875,-1.125 -0.609375,0 -1.328125,0.265625 -1.75,1.1875 -0.3125,0.6875 -0.359375,1.46875 -0.359375,2.265625 0,0.75 0.03125,1.640625 0.453125,2.40625 0.421875,0.796875 1.15625,1 1.640625,1 0.53125,0 1.296875,-0.203125 1.734375,-1.15625 0.3125,-0.6875 0.359375,-1.46875 0.359375,-2.25 z M 2.484375,0 C 2.09375,0 1.5,-0.25 1.328125,-1.203125 1.21875,-1.796875 1.21875,-2.71875 1.21875,-3.3125 c 0,-0.640625 0,-1.296875 0.078125,-1.828125 0.1875,-1.1875 0.9375,-1.28125 1.1875,-1.28125 0.328125,0 0.984375,0.1875 1.171875,1.171875 0.109375,0.5625 0.109375,1.3125 0.109375,1.9375 0,0.75 0,1.421875 -0.109375,2.0625 C 3.5,-0.296875 2.9375,0 2.484375,0 Z m 0,0"
             style="stroke:none;stroke-width:0"
             inkscape:connector-curvature="0" />
        </g>
      </g>
      <g
         id="g2081"
         ns1:jacobian_sqrt="0.963412"
         ns1:alignment="middle center"
         ns1:scale="2.7309312983"
         ns1:preamble="/home/hxd/.config/inkscape/extensions/textext/hxd-default.tex"
         ns1:text="$n=1$"
         ns1:pdfconverter="pdf2svg"
         ns1:texconverter="xelatex"
         ns1:version="0.10.0"
         transform="matrix(0.963412,0,0,0.963412,6.5647537,-41.058418)">
        <g
           id="g2079">
          <g
             id="g2069"
             style="fill:#000000;fill-opacity:1">
            <path
               id="path2067"
               transform="translate(148.712,134.765)"
               d="m 0.875,-0.59375 c -0.03125,0.15625 -0.09375,0.390625 -0.09375,0.4375 0,0.171875 0.140625,0.265625 0.296875,0.265625 0.125,0 0.296875,-0.078125 0.375,-0.28125 0,-0.015625 0.125,-0.484375 0.1875,-0.734375 l 0.21875,-0.890625 C 1.90625,-2.03125 1.96875,-2.25 2.03125,-2.46875 c 0.03125,-0.171875 0.109375,-0.46875 0.125,-0.5 0.140625,-0.3125 0.671875,-1.21875 1.625,-1.21875 0.453125,0 0.53125,0.375 0.53125,0.703125 0,0.609375 -0.484375,1.890625 -0.640625,2.3125 C 3.578125,-0.9375 3.5625,-0.8125 3.5625,-0.703125 c 0,0.46875 0.359375,0.8125 0.828125,0.8125 0.9375,0 1.296875,-1.453125 1.296875,-1.53125 0,-0.109375 -0.078125,-0.109375 -0.109375,-0.109375 -0.109375,0 -0.109375,0.03125 -0.15625,0.1875 -0.203125,0.671875 -0.53125,1.234375 -1.015625,1.234375 -0.171875,0 -0.234375,-0.09375 -0.234375,-0.328125 0,-0.25 0.078125,-0.484375 0.171875,-0.703125 0.1875,-0.53125 0.609375,-1.625 0.609375,-2.203125 0,-0.65625 -0.421875,-1.0625 -1.140625,-1.0625 -0.90625,0 -1.390625,0.640625 -1.5625,0.875 -0.046875,-0.5625 -0.453125,-0.875 -0.921875,-0.875 -0.453125,0 -0.640625,0.390625 -0.734375,0.5625 C 0.421875,-3.5 0.296875,-2.90625 0.296875,-2.875 c 0,0.109375 0.09375,0.109375 0.109375,0.109375 0.109375,0 0.109375,-0.015625 0.171875,-0.234375 0.171875,-0.703125 0.375,-1.1875 0.734375,-1.1875 0.1875,0 0.296875,0.125 0.296875,0.453125 0,0.21875 -0.03125,0.328125 -0.15625,0.84375 z m 0,0"
               style="stroke:none;stroke-width:0"
               inkscape:connector-curvature="0" />
          </g>
          <g
             id="g2073"
             style="fill:#000000;fill-opacity:1">
            <path
               id="path2071"
               transform="translate(157.46,134.765)"
               d="m 6.84375,-3.265625 c 0.15625,0 0.34375,0 0.34375,-0.1875 C 7.1875,-3.65625 7,-3.65625 6.859375,-3.65625 h -5.96875 c -0.140625,0 -0.328125,0 -0.328125,0.203125 0,0.1875 0.1875,0.1875 0.328125,0.1875 z m 0.015625,1.9375 c 0.140625,0 0.328125,0 0.328125,-0.203125 0,-0.1875 -0.1875,-0.1875 -0.34375,-0.1875 H 0.890625 c -0.140625,0 -0.328125,0 -0.328125,0.1875 0,0.203125 0.1875,0.203125 0.328125,0.203125 z m 0,0"
               style="stroke:none;stroke-width:0"
               inkscape:connector-curvature="0" />
          </g>
          <g
             id="g2077"
             style="fill:#000000;fill-opacity:1">
            <path
               id="path2075"
               transform="translate(167.96855,134.765)"
               d="m 2.9375,-6.375 c 0,-0.25 0,-0.265625 -0.234375,-0.265625 C 2.078125,-6 1.203125,-6 0.890625,-6 v 0.3125 c 0.203125,0 0.78125,0 1.296875,-0.265625 v 5.171875 c 0,0.359375 -0.03125,0.46875 -0.921875,0.46875 h -0.3125 V 0 c 0.34375,-0.03125 1.203125,-0.03125 1.609375,-0.03125 0.390625,0 1.265625,0 1.609375,0.03125 v -0.3125 h -0.3125 c -0.90625,0 -0.921875,-0.109375 -0.921875,-0.46875 z m 0,0"
               style="stroke:none;stroke-width:0"
               inkscape:connector-curvature="0" />
          </g>
        </g>
      </g>
    </g>
    <g
       id="g2278"
       ns1:jacobian_sqrt="0.963412"
       inkscapeversion="0.92.5"
       ns1:alignment="middle center"
       ns1:scale="2.7309312983"
       ns1:preamble="/home/hxd/.config/inkscape/extensions/textext/hxd-default.tex"
       ns1:text="{\\color{red}$\\bm{E}$}"
       ns1:pdfconverter="pdf2svg"
       ns1:texconverter="xelatex"
       ns1:version="0.10.0"
       transform="matrix(0.963412,0,0,0.963412,-24.441488,16.111514)">
      <g
         id="g2276">
        <g
           id="g2274"
           style="fill:#ff0000;fill-opacity:1">
          <path
             id="path2272"
             transform="translate(148.712,134.765)"
             d="m 7.78125,-2.375 c 0.0625,-0.125 0.0625,-0.171875 0.0625,-0.171875 0,-0.1875 -0.1875,-0.1875 -0.234375,-0.1875 -0.15625,0 -0.171875,0.015625 -0.296875,0.296875 -0.59375,1.3125 -1.109375,1.96875 -2.796875,1.96875 H 3.21875 c -0.140625,0 -0.171875,0 -0.234375,-0.015625 l 0.6875,-2.796875 h 0.6875 c 0.59375,0 0.796875,0.09375 0.796875,0.4375 0,0.15625 -0.078125,0.421875 -0.078125,0.453125 L 5.0625,-2.296875 c 0,0.15625 0.125,0.1875 0.234375,0.1875 0.1875,0 0.203125,-0.0625 0.25,-0.25 l 0.546875,-2.21875 c 0.046875,-0.125 0.046875,-0.140625 0.046875,-0.15625 0,-0.1875 -0.203125,-0.1875 -0.234375,-0.1875 -0.1875,0 -0.21875,0.078125 -0.265625,0.265625 -0.203125,0.75 -0.5,0.90625 -1.25,0.90625 h -0.59375 l 0.625,-2.546875 C 4.5625,-6.3125 4.671875,-6.3125 4.765625,-6.3125 h 1.3125 c 1.078125,0 1.515625,0.234375 1.515625,1.1875 0,0.1875 -0.03125,0.40625 -0.03125,0.5625 0,0.1875 0.1875,0.1875 0.234375,0.1875 0.203125,0 0.21875,-0.09375 0.234375,-0.28125 l 0.1875,-1.78125 v -0.15625 c 0,-0.1875 -0.15625,-0.1875 -0.328125,-0.1875 H 2.375 c -0.21875,0 -0.21875,0.015625 -0.265625,0.046875 -0.078125,0.0625 -0.09375,0.234375 -0.09375,0.25 0,0.171875 0.140625,0.171875 0.40625,0.171875 0.203125,0 0.40625,0.015625 0.609375,0.015625 l -1.40625,5.625 C 1.578125,-0.515625 1.578125,-0.5 1.390625,-0.484375 1.21875,-0.46875 1.03125,-0.46875 0.875,-0.46875 c -0.265625,0 -0.28125,0 -0.328125,0.015625 -0.125,0.078125 -0.125,0.234375 -0.125,0.28125 C 0.421875,0 0.59375,0 0.765625,0 h 5.6875 c 0.25,0 0.28125,0 0.375,-0.203125 z m 0,0"
             style="stroke:none;stroke-width:0"
             inkscape:connector-curvature="0" />
        </g>
      </g>
    </g>
    <path
       style="fill:none;stroke:#ff0000;stroke-width:0.8;stroke-linecap:butt;stroke-linejoin:miter;stroke-opacity:1;stroke-miterlimit:4;stroke-dasharray:none;marker-end:url(#marker2366)"
       d="m 111.50485,149.94829 h 26.00532"
       id="path2298"
       inkscape:connector-curvature="0" />
    <path
       style="fill:none;stroke:#ff0000;stroke-width:0.5;stroke-linecap:butt;stroke-linejoin:miter;stroke-opacity:1;marker-end:url(#marker4200);stroke-miterlimit:4;stroke-dasharray:none"
       d="m 63.797235,164.54121 c -0.187087,-3.74177 1.122534,-5.0514 6.735193,-6.36102"
       id="path3764"
       inkscape:connector-curvature="0"
       sodipodi:nodetypes="cc" />
    <path
       style="fill:none;stroke:#ff0000;stroke-width:0.5;stroke-linecap:butt;stroke-linejoin:miter;stroke-miterlimit:4;stroke-dasharray:none;stroke-opacity:1;marker-end:url(#marker4200-9)"
       d="m 72.179604,156.12209 c -0.187087,-3.74177 1.122534,-5.0514 6.735193,-6.36102"
       id="path3764-2"
       inkscape:connector-curvature="0"
       sodipodi:nodetypes="cc" />
    <path
       style="fill:none;stroke:#ff0000;stroke-width:0.5;stroke-linecap:butt;stroke-linejoin:miter;stroke-miterlimit:4;stroke-dasharray:none;stroke-opacity:1;marker-end:url(#marker4200-4)"
       d="m 81.282751,147.23263 c -0.187087,-3.74177 1.122534,-5.0514 6.735193,-6.36102"
       id="path3764-7"
       inkscape:connector-curvature="0"
       sodipodi:nodetypes="cc" />
    <path
       style="fill:none;stroke:#ff0000;stroke-width:0.5;stroke-linecap:butt;stroke-linejoin:miter;stroke-miterlimit:4;stroke-dasharray:none;stroke-opacity:1;marker-end:url(#marker4200-5)"
       d="m 90.572986,138.09739 c -0.187087,-3.74177 1.122534,-5.05141 6.735193,-6.36103"
       id="path3764-8"
       inkscape:connector-curvature="0"
       sodipodi:nodetypes="cc" />
    <path
       style="fill:none;stroke:#ff0000;stroke-width:0.5;stroke-linecap:butt;stroke-linejoin:miter;stroke-miterlimit:4;stroke-dasharray:none;stroke-opacity:1;marker-end:url(#marker4200-1)"
       d="m 98.997482,129.6463 c -0.187087,-3.74177 1.122538,-5.0514 6.735188,-6.36102"
       id="path3764-9"
       inkscape:connector-curvature="0"
       sodipodi:nodetypes="cc" />
  </g>
</svg>
